<mxfile host="app.diagrams.net" modified="2023-03-30T06:50:25.177Z" agent="Mozilla/5.0 (Macintosh; Intel Mac OS X 10_15_7) AppleWebKit/537.36 (KHTML, like Gecko) Chrome/111.0.0.0 Safari/537.36" etag="4Fm_hwRCrfKmekZHKYmJ" version="21.1.2" type="device">
  <diagram id="QtkQu0UXdhwooa4YLX3U" name="Page-1">
    <mxGraphModel dx="954" dy="-622" grid="1" gridSize="10" guides="1" tooltips="1" connect="1" arrows="1" fold="1" page="1" pageScale="1" pageWidth="827" pageHeight="1169" math="0" shadow="0">
      <root>
        <mxCell id="0" />
        <mxCell id="1" parent="0" />
        <mxCell id="JLn7KphtzS8eRCRagWTE-1" value="&lt;div&gt;&lt;font color=&quot;#000000&quot; style=&quot;font-size: 18px&quot;&gt;Fluentd : Log Aggregation &amp;amp; Forwarding&lt;/font&gt;&lt;/div&gt;" style="rounded=1;absoluteArcSize=1;arcSize=2;html=1;strokeColor=none;gradientColor=none;shadow=1;dashed=0;fontSize=12;fontColor=#9E9E9E;align=center;verticalAlign=top;spacing=10;spacingTop=-4;fillColor=#E1F5FE;" parent="1" vertex="1">
          <mxGeometry x="850" y="1520" width="560" height="550" as="geometry" />
        </mxCell>
        <mxCell id="JLn7KphtzS8eRCRagWTE-2" value="&lt;font color=&quot;#000000&quot; style=&quot;font-size: 18px&quot;&gt;Fluentd CRDs&lt;/font&gt;" style="rounded=1;absoluteArcSize=1;arcSize=2;html=1;strokeColor=none;gradientColor=none;shadow=0;dashed=0;fontSize=12;fontColor=#9E9E9E;align=center;verticalAlign=top;spacing=10;spacingTop=-4;fillColor=#99CCFF;" parent="1" vertex="1">
          <mxGeometry x="860" y="1920" width="540" height="143" as="geometry" />
        </mxCell>
        <mxCell id="JLn7KphtzS8eRCRagWTE-3" value="&lt;font color=&quot;#000000&quot; style=&quot;font-size: 18px&quot;&gt;FluentBit: Log Collection&lt;/font&gt;" style="rounded=1;absoluteArcSize=1;arcSize=2;html=1;strokeColor=none;gradientColor=none;shadow=0;dashed=0;fontSize=12;fontColor=#9E9E9E;align=center;verticalAlign=top;spacing=10;spacingTop=-4;fillColor=#E1F5FE;" parent="1" vertex="1">
          <mxGeometry x="520" y="1523" width="260" height="317" as="geometry" />
        </mxCell>
        <mxCell id="JLn7KphtzS8eRCRagWTE-4" value="&lt;div&gt;Sinks&lt;/div&gt;" style="rounded=1;absoluteArcSize=1;arcSize=2;html=1;strokeColor=none;gradientColor=none;shadow=0;dashed=0;fontSize=12;fontColor=#9E9E9E;align=left;verticalAlign=top;spacing=10;spacingTop=-4;fillColor=#E1F5FE;" parent="1" vertex="1">
          <mxGeometry x="1460" y="1520" width="125" height="511" as="geometry" />
        </mxCell>
        <mxCell id="JLn7KphtzS8eRCRagWTE-5" value="&lt;div style=&quot;font-size: 18px&quot;&gt;&lt;span&gt;Fluent Operator : Build Cloud Native L&lt;/span&gt;&lt;span&gt;og Processing Pipeline&lt;/span&gt;&lt;/div&gt;" style="fillColor=#4DA1F5;strokeColor=none;shadow=0;gradientColor=none;fontSize=14;align=center;spacingLeft=50;fontColor=#ffffff;html=1;labelBorderColor=none;" parent="1" vertex="1">
          <mxGeometry x="140" y="1460" width="1450" height="40" as="geometry" />
        </mxCell>
        <mxCell id="JLn7KphtzS8eRCRagWTE-6" value="" style="strokeColor=#dddddd;fillColor=#ffffff;shadow=1;strokeWidth=1;rounded=1;absoluteArcSize=1;arcSize=2;labelPosition=center;verticalLabelPosition=middle;align=center;verticalAlign=bottom;spacingLeft=0;fontColor=#999999;fontSize=12;whiteSpace=wrap;spacingBottom=2;html=1;" parent="1" vertex="1">
          <mxGeometry x="1485" y="1572.5" width="80" height="70" as="geometry" />
        </mxCell>
        <mxCell id="JLn7KphtzS8eRCRagWTE-7" value="&lt;font color=&quot;#000000&quot; style=&quot;font-size: 15px&quot;&gt;Fluentd&lt;/font&gt;" style="strokeColor=#dddddd;fillColor=#ffffff;shadow=1;strokeWidth=1;rounded=1;absoluteArcSize=1;arcSize=2;fontSize=11;fontColor=#9E9E9E;align=center;html=1;" parent="1" vertex="1">
          <mxGeometry x="919" y="1960" width="110" height="40" as="geometry" />
        </mxCell>
        <mxCell id="JLn7KphtzS8eRCRagWTE-8" value="&lt;span style=&quot;color: rgba(0 , 0 , 0 , 0) ; font-family: monospace ; font-size: 0px&quot;&gt;%3CmxGraphModel%3E%3Croot%3E%3CmxCell%20id%3D%220%22%2F%3E%3CmxCell%20id%3D%221%22%20parent%3D%220%22%2F%3E%3CmxCell%20id%3D%222%22%20value%3D%22%22%20style%3D%22strokeColor%3D%23dddddd%3BfillColor%3D%23ffffff%3Bshadow%3D1%3BstrokeWidth%3D1%3Brounded%3D1%3BabsoluteArcSize%3D1%3BarcSize%3D2%3BlabelPosition%3Dcenter%3BverticalLabelPosition%3Dmiddle%3Balign%3Dcenter%3BverticalAlign%3Dbottom%3BspacingLeft%3D0%3BfontColor%3D%23999999%3BfontSize%3D12%3BwhiteSpace%3Dwrap%3BspacingBottom%3D2%3Bhtml%3D1%3B%22%20vertex%3D%221%22%20parent%3D%221%22%3E%3CmxGeometry%20x%3D%22920%22%20y%3D%22310%22%20width%3D%2280%22%20height%3D%2270%22%20as%3D%22geometry%22%2F%3E%3C%2FmxCell%3E%3C%2Froot%3E%3C%2FmxGraphModel%3E&lt;/span&gt;" style="dashed=0;connectable=0;html=1;fillColor=#5184F3;strokeColor=none;shape=mxgraph.gcp2.hexIcon;prIcon=cloud_sql;part=1;labelPosition=right;verticalLabelPosition=middle;align=left;verticalAlign=middle;spacingLeft=5;fontColor=#999999;fontSize=12;" parent="1" vertex="1">
          <mxGeometry x="1496.5" y="1596.5" width="57" height="44.5" as="geometry" />
        </mxCell>
        <mxCell id="JLn7KphtzS8eRCRagWTE-9" value="&lt;font color=&quot;#000000&quot; style=&quot;font-size: 15px&quot;&gt;FluentdConfig&lt;/font&gt;&lt;span style=&quot;color: rgba(0 , 0 , 0 , 0) ; font-family: monospace ; font-size: 0px&quot;&gt;%3CmxGraphModel%3E%3Croot%3E%3CmxCell%20id%3D%220%22%2F%3E%3CmxCell%20id%3D%221%22%20parent%3D%220%22%2F%3E%3CmxCell%20id%3D%222%22%20value%3D%22%26lt%3Bfont%20color%3D%26quot%3B%23000000%26quot%3B%26gt%3BFluend%20CRD%26lt%3B%2Ffont%26gt%3B%22%20style%3D%22strokeColor%3D%23dddddd%3BfillColor%3D%23ffffff%3Bshadow%3D1%3BstrokeWidth%3D1%3Brounded%3D1%3BabsoluteArcSize%3D1%3BarcSize%3D2%3BfontSize%3D11%3BfontColor%3D%239E9E9E%3Balign%3Dcenter%3Bhtml%3D1%3B%22%20vertex%3D%221%22%20parent%3D%221%22%3E%3CmxGeometry%20x%3D%22280%22%20y%3D%22600%22%20width%3D%2290%22%20height%3D%2240%22%20as%3D%22geometry%22%2F%3E%3C%2FmxCell%3E%3C%2Froot%3E%3C%2FmxGraphModel%3E&lt;/span&gt;" style="strokeColor=#dddddd;fillColor=#ffffff;shadow=1;strokeWidth=1;rounded=1;absoluteArcSize=1;arcSize=2;fontSize=11;fontColor=#9E9E9E;align=center;html=1;" parent="1" vertex="1">
          <mxGeometry x="1043" y="1960" width="110" height="40" as="geometry" />
        </mxCell>
        <mxCell id="JLn7KphtzS8eRCRagWTE-10" value="&lt;font color=&quot;#000000&quot; style=&quot;font-size: 15px&quot;&gt;ClusterFluentdConfig&lt;/font&gt;" style="strokeColor=#dddddd;fillColor=#ffffff;shadow=1;strokeWidth=1;rounded=1;absoluteArcSize=1;arcSize=2;fontSize=11;fontColor=#9E9E9E;align=center;html=1;" parent="1" vertex="1">
          <mxGeometry x="1166.03" y="1960" width="160" height="40" as="geometry" />
        </mxCell>
        <mxCell id="JLn7KphtzS8eRCRagWTE-11" value="&lt;font color=&quot;#000000&quot; style=&quot;font-size: 15px&quot;&gt;Output&lt;/font&gt;" style="strokeColor=#dddddd;fillColor=#ffffff;shadow=1;strokeWidth=1;rounded=1;absoluteArcSize=1;arcSize=2;fontSize=11;fontColor=#9E9E9E;align=center;html=1;" parent="1" vertex="1">
          <mxGeometry x="1136" y="2011" width="110" height="40" as="geometry" />
        </mxCell>
        <mxCell id="JLn7KphtzS8eRCRagWTE-12" value="&lt;font color=&quot;#000000&quot; style=&quot;font-size: 15px&quot;&gt;ClusterOutput&lt;/font&gt;" style="strokeColor=#dddddd;fillColor=#ffffff;shadow=1;strokeWidth=1;rounded=1;absoluteArcSize=1;arcSize=2;fontSize=11;fontColor=#9E9E9E;align=center;html=1;" parent="1" vertex="1">
          <mxGeometry x="1257" y="2011" width="110" height="40" as="geometry" />
        </mxCell>
        <mxCell id="JLn7KphtzS8eRCRagWTE-13" value="" style="edgeStyle=orthogonalEdgeStyle;fontSize=12;html=1;endArrow=blockThin;endFill=1;rounded=0;strokeWidth=2;endSize=4;startSize=4;dashed=0;strokeColor=#4284F3;exitX=1;exitY=0.5;exitDx=0;exitDy=0;entryX=0;entryY=0.5;entryDx=0;entryDy=0;" parent="1" source="JLn7KphtzS8eRCRagWTE-20" target="JLn7KphtzS8eRCRagWTE-14" edge="1">
          <mxGeometry width="100" relative="1" as="geometry">
            <mxPoint x="758" y="1627" as="sourcePoint" />
            <mxPoint x="939" y="1627" as="targetPoint" />
          </mxGeometry>
        </mxCell>
        <mxCell id="JLn7KphtzS8eRCRagWTE-14" value="" style="shape=image;verticalLabelPosition=bottom;labelBackgroundColor=#ffffff;verticalAlign=top;aspect=fixed;imageAspect=0;image=data:image/png,iVBORw0KGgoAAAANSUhEUgAAAH8AAAByCAYAAAB6Iw7NAAAfd0lEQVR4Ae2dh19T2bbH31/yrjN3Zu6bmdCS0O2OXYrdcZwZu6JjpygWpEivAkqxoVQRpEuVKkjvTaQjvYTe/b3POiEKCggCCV6Sz2d9TgjJycn+rrX22muvvc//QPxYsi3wP0v2l4t/OMTwl7ASiOGL4S/hFljCP11s+WL4S7gFlvBPF1u+GP4SboEl/NPFli+G/+UWGH3/HkMj7zE48h4DwySjzN8j79/j/fsvf178jsXXAl+0fOI6Mvoebb3DyKrrQXgZDy/KuxBa2oHkqk7U8gbQOziC0fdglECsB4sP8lRXNCV8gjg8+h7tfSNIqOmFe1EXHLI6YPa6GaYpzTB+1QTr1BbcyWyDe147oss78ba1H90DI4yyiL3BVE2+eF6fFD6BI2uv7xqER1EnbHN7YJbWhlspLTBMbobhqyboJzVBP7ERNxMaYZDUDOPX7bBIaYFHTisKG3vRMziCodH3oO5C7A0WD/DxVzIpfLL4Wt4gHhV2wjqnG6aprTB+3QKjlOYJ8Am8XnwDIzfi6nEjrgH6ic24ldgEt+xW5NT3oKN/mPEg479U/HxxtMCk8Nv6RhD0tgd2uV0wTWuDSWorY/VTwb8R34DrcfW4FluPqy/f4drLetyMb8KthAZ457cjt74X7b3DTIAo7g4WB3i6is/gE5ycxn44FXTDIqN99vBj3kE3ug5XompxJboOui/rYZbYiOeF7UxMQF5F3A0sDgWYAJ/A9w6NIryyB1bZPJint80J/uWoWuhE1uBKVB30XtbDNrkJ0WU8tPUMMV5gcTTB0r2KCfBpuNbSOwy/8j5YZnXCbJ7ga0fUQCu8BtrhNdCLbYTL60a8ae79kCdYus0v2l8+AT5F+NW8QbiX9MAye37ha76ohuaLKmi9qMLlyFrcin2HmDcdaO0Zwqi4KxCJFkyAT/1xeccgHhZ1wyKLN6+Wz8APq8KlsCpcDK2E1otq3Iiqg0dmM8qa+9A/NMoMC0XSCkv0SyeF/0AI8C+EVOJCcCUuhVbBMqEeSRU88PqGligG0fzsSeGT5VsusOUT/PNBFTgfXMEowM3oOvhkN6O6rV8cDApJFybApz6/ZiH7/HFuXwD/XFA5zgaSVEA7rBoOSQ0oqO9hJo7E2cGF1YIJ8Cnab+4Zi/YXIuCbBv6ZgHKcDSjHheAqGETVIr6sg0kRkwKIHwvTAhPgUzt39o8guLwHFjSJM49DvU8Dvk8tn+D/8/wtI+fIC4RUwje7Ge94AxgcFgeDC4F/InwAgyOjiKnqgbWI4J/2L8NpvzKc9n+LswEVcEyqR/67bvQNjizE71/S55wAn1qCrD+zsQ938+ee3hVk+CjJM1PLJ/in/Mqg8ewNczwfWAGT6FrElLSjo3eImW1c0sTm8cd/Bp/OXdkxCLfiXljOMbc/V/gnn73BSd9SaDwrw+WQSvhkNqK9h68A4lBg7lowKXxe/wielXbBJqtjXnL7X2v5AvgnnpZCw7cU5wIqYR1Tg8qWXmaaWKwAc1OASeFTrV5ybQ8c8nsWBfzjPiUQyD/+5dAPq0RKRQd4fcPiqqE58J8UPg2v6niDcM7vgll6++zm88dN6c6X2xeAP+ZdjGNexTju8waaz9/CP7sRjbx+cbHIVyrApPDJnfYPj+JZCQ/W2V18+NNU8kwo5lhg+Ee9inHUsxhHvUpwwf8t7sRXI7+Wh4GhUbwX9wOzUoNJ4dMZKOFT0NQP22weTNNacWsRwT/iWYzDnkWMHPMuwZXnJYjJb0Q/U0UsTgrNVAOmhE9G1D04CveCDlhk8qat4RO25QvgH/IowiGPQpA3OOFVBNe4t2jk9YnjgBnSnxr+WOl2VkMfrLJ4jOufUQ2fENz+R/iFOOheiINPCnCYjo/zYRxchILaDvQOjAWDM2yIpfi2KeFTY5ADbe0bhls+lXS1T1m9KzrL/wj/78cFINl7Lxsn3DIRml2H1q5+cY3ANFo9LXz6HAV+KXW9sMvqYPr98XX7gtLtxQL/r8cF+PNRHva4ZmG/cyosw4qQX9POeIHFFgtS9dLw8AgGBofR2zeI1vZuvGvsQHlVC95UNKGsognVdW1obu1CV3c/876RkfkNar8In6Z5G7qG4FXcBePUtknr9hcT/L/c8nHgUT52OmdivWU8NB6lISSzFrzeQZHFAqR4NBJhgI+MYmhoBG0dPSgorkNIZA5cHsdB3zIAmje9cVrHHRraT3BK+wnOXfXEdRM/3HaNQlh0LqprWzE0PMKcZxqDnvG/vgifLpyf9OmFTWYHf9XO2IqdxWn5BD8PfzzMxV7XbKw3j8NWq3gY+ueh5B1P6CMCpv2GR9DXP4R3DR2ITSqGtVMEjl18iO1/O2Drfjts2G2F1WqmWKlijOVbb2H5Nr6s2GbMvL5uhwW27LfDAQ0XuLonoK6hY0yR5zay+SJ8gRqR9XsWdjKrdwTLtRY3/Dz8cT8XO50ysMo4BooGkdjvkITnqVVo4vV/DAjnuT+gBNnwyCj6B4fR2TOA+uYuvMqqhN39l/jzn3tYt8sKK1XNoLjlFuQ2GsxK6DPrdlpDU98XxWUNTFcg4PM1xxnDJ+vPeteL29mdjOuntXqLHv6DPOy/n4vtjulYYRQNOb1wKOpH4PSDVASm16C6pYfxBF/TcJN9htw6r2cQ5fWdiM2sgb1nKo5c9sZve22xXMUMSluMobDZCPKbDL8InbteHwIZryT0+dXbLXDp5lOUlDXMKbE1Y/iU9OkcGIFvMQ9maR0wIPiJ/LV6i6nP//ORwO3n4Q+C/yAX++7lQM0hFcqGUeBcD4XCzXBsMouBpnsmniS8RVpZC+raetDdN8QUjpDlEkimjIz667Gpbqbffv+ecblDw2TdI+jsHURtSw8y3jQjMKUSdv65OGcdDdVTbli1xxbKKqZQ2HwLcgxwgj69yG40xHJVE+w6cgca2o+x74QTVqiaMEoj+CzjAXZZwcktDu28XoyMjk6mi198bcbw6UykABVtA3DI5K/YpVW6tFBzscP//T5fAVTtX0PhZgRkdIPB1g0BWzcUq6k7sH8FrSfpcIksQWR2HfKr2vCurQftXf2MQpALp7wBWXUzrw8VjZ1IK2liYNsHFUD7fir+tknEpishUDz0AHLbrSG7xRiymwwhu8lo7EjPvyRG4G40xKnL7oh7VYLStw2ISy7B+RveWK5qOu7zRpDbfAu/a7ggPacSg0NfV+gyK/hkAbQrR1J1N4xTWmGQ2PRNwd/rkg3V268hf+MF2KQAV4LB1Q2B3NVQKN0Iw1rDSGwzj8NOq3jst43DEYdEnHFNgebD17hwLwUn7yThT+s47LWIxXbTOGw1jMa6ay+wXCsIShpekN99G3LbTPngN9+C7FfI6p0WCIvJZ4Z/NCro7ulHRFwh1A85grvRaMI5V+2whKlDOHp6B7/K/c8KPlk/xUeU9n2c1w7j123fFPx9rjnY45KNrbbJkLsexsAnBWBfHhOdILB1gsHRCQJHJxiyOiGQuxwK+cshkKPn2sGQ1QwC91IguBdJAsA95w/Zgw8gq2I2AczXgKfPbN5vh9SsCgjG9JQHyMitwu+nXMH5BL7CNhOs32eLvKI6xvpnG/vPGj4pAAV/JS19cMhoxc3Epm/G7RN8Gv7tds7CRstEyF4L5SvABPhB4GiPiVYQOFpB4GoFgqMZCC4JgWfgB4B72hvc3+9AdqsJ39rJ1c9RFFVN8ehpMpMHoNijraMX7n6vsekPO3DJk3xyfiU1C5y94YPquvZZW/9Xwae+n3beiKnogmlKCxP1f1ifL6LcPqV2+Rm+zwM+QZ8vgE/Wv+NOOtaZxvEV4AvwCfwE+Beeg3vCA9w99uBuNQV3iwm4W4znRzYbQ/3wXTi6xSE4Og93nyRgj4YrFFXNJj0/dTMrd1rDwDYMBaX16Okb5K99nIEb+Cr4gjCStm15ktsGo1fNHzdn+Ebgk/XTEHCVUQw4AtfPuP3PLX8CfHL1x56Au8NmHHiCP3/C2WIMeRUzrN5jDUV1c3A2k2JNc/6tJli12wb/XH+K0JcF4HXSzOboF/dBmBN8xv0398Iimb83j2BnDsHmDAtRyUPTt5PN6s3W8gn+bqcsJgBU0ovg9/tTwSe3fykA3IvPwTn8EFx1K3C3mfLhk+UvApFTMcPyndZQP+oCA7sXKHnbyCSBpitwmRN8Cv5oZW9MWRt0Yvl78lz9Rix/zxj8XXczsc0mBbK6oUyQx6Zg75M+n0Pwx8BzVM3B2WYGzjZTkQujgBRoqppBTtUccmrmUFC3wMq9dvjzwmPkl9ZPOw8wJ/iC6L9vaASPMuuh9bIeujHvcDWGvy3LYrb8D/CdMrHzTibWmyWAeyUEn8Gn/v6iPziHHoCjZgmOigA+KYAoxJx/DSrmUNhuhZV77LD+zzvYfNAZWw+7YNsRV6gcvYedGm7QtQhCT+/AlJtkzhk+KQDN/LX1DsHiVR0uRNbi8tiePN8M/LuZUHdIxyrDGHAuB3+0fAJ/wZ9x9Zzt1qIBr2IO7hho5V022HLICX9d8sA5Az8Y2YfjrnsifEIyERpTgPD4IkQmFCMqsQSRiSVIz6vG4PDUCaB5gc8M/0bfI7+pB7ovq3EspBI6pARje/LMtW5/fPXufPX5Eyz/biZ2jrl/xevh/HE+uf5LAeAcfgSOutUHa2Msn6xfSMJVs4TSLlv8fu4xDG6Hwz88B1mFtWho7mRmCqfr0wWB+VTHeYNPw7++oVFEl7fjSEg5jgaVQyuiBgT+W4G/3SEdG8wSIH8lFBzNALCPuIG9wwZsVQuhCkfVAnLqVlj5uwMOaXvCzS8Nmfl84L39Q0w9AHnbuYAnhZg3+ALt4vUP42F2A9SflWL/s1JohldDK5z246mG5heWaNMq3fFr9QQrdoRl+TscM6Bmn4aVN6PAOeEO9nZroUInJaO4QmGXHdYdcIS9WwLKKlvQ20+FKF83eSPgMtlx3uGTRrb0DOL6yyqs9iiEqmchTgdXfBvw72Rgu2MG1t2MBGefI9jqVmCrWQpNqHtR3GWLk1e9mBQvFYBQqRdZ+AxyNpPxnfa1eYdP30ZToYVNPTgWUoaVj/Ox8Uk+Dvq9wdmQClwMrcKF0EpMtT5flJZPbn+TRSIUtIPAPvwQbHVrsNUWVgFk1CzBiIo51uyzxU3rIJSW8ws1qB0X8rEg8OmCafyfUs3DzmelUHyYhxUPsrHDsxAnA94y4Bcj/K1Wr6BI/f2F52Cf9YXMXkfIqFstnKhZQWKLCX79zQCKasawvReJppbOacfm86kMCwaftLZ3aATeeU3Y4lUI+XvZULqXjd8e5WCvVxE0nr/FuaAKCPbkEezMISrLV7VLxfJrL5hkDvuCP9jn/SBz3B0yO+0go249ryKlagnWZmP8Z40e/m/VVShsM8JDn0Q0NvPG8vILa/ECBVow+PQF1P83dg/CNKEaSg9yIX8vC3IumVByycSGhzn407sYpwPe4kzgxy1ZhA7/biZ2OKZjpV4kOJeegwHPwPcH+9wzyBxwgcx2m68XUpztfJFWswJrswl+XH0N3ytq43sFLchvMYB3YCo6u/qEZvFCgU/6SwqQ19CNY8FlWP4wl4Ev75wJeecMKDplYMP9bBzwLIIGbcfiL/xof8edDKyl5M7FceAJvkCOe/Ct/ysUQFrdBtLq1pBUscDP6w3x7+VXsEzuIv4lewE/KGpBdtNNeAe8ZrJwowsQzQsgT3VcUMsXfGn34Aj8C5uh7l0EBdcsyDlnQs45A3J30yF/Nx1KdzOw3jULu58U4CAtw35aihO+JG/4x7H1+bREe76SPDSxQ4mdDTStqxkI9sVxwAXg6XjmKWT+cIb0TjtI77CdXrbbQErdGlLUl6tY4JfNxvhprR6+V9bBMrlLDHSC/738JSirGOHOoxi0tHWJbFWRUOBT/0/pX4PYKqx4mAd5l4/w5e6kg4TrmAZ5hzSsvJOOLfeysdstH397FuGodwlO+PDluM/8wd/llIktVklQoLn88bA/fU59/9HHkN5tPxE8KQOjEHaQ3m4DSXLpW83x8wYj/LjmBr5Xvoxl8pfwv7IXGOhk7STfyV+E1G/XYeYYyqzSEYXFC4xSKPDJ/ZMCZNR2Yv+zYijfy/5g+QL4so5pkHVIg6x9KuTtU6Fsn4bVjunY5JQJ9Xs52PsoD3+SZ/AoBK3OPTy2QlewUFMwpctfsUOLNj5W735WzOGcBRXbFChfDZva3QuU4Lwf2Kd9ILPfCdI77CC1wxaS6jaQULXEr1vN8PNGI/xn7U38sPIaA/w7Bc0Prl0AXHD8Tu4iflmli6umz1BZ0zwW3AlQCP8oFPiCn0Xu3yOrAavdCkD9Prn9yeDL3k6FrN1ryNq+hpxtCuRtX0PZ7jVW307FBsd0qNBM3L0c7HuQxyzN+utxPgg6VfL8xZRu538CP4cp397nmg0q4uQHeBFTu3oCf35MzvmBfcYXkr874ZfNJvjPOn38uOo6/q18Bd8pamOZPMEml059Ob8/F8AefyR3/9NyHRw444Sq2hYMD89/xk7QzjM9ChU+BX/k/g/7FWH5/ZwZwZe1TYGsTQrkrEmSIWeVDFmLV5CzeAV581dQskzGCstkrLVOwcbbadh8OxUqDulQv5MJdccMqDumMzN2NGunZp8O1dupWHktHOyzfpA58wwy//jy5dRTSGv4QPqkN6RPeEH6uCekj3pC+ogHI7/stMcyJR38S+4SlhFkAj4B+vTwKbLffMASb8obmdz8XPPyMwU83fuECp8uZGBkFCFFLdjglgc5p4wvWr4Avqx1MmQJvOUrBj7XIglcsyRwTRP5YpIArnECZG/xRc4oHnJGcZAzjIW8QRzkDWIhp0dRfRCkjnpA6ogHJMeEnksdcYfU4TE55A7pT0Tid1d8v/L6FMAF4Ce3/B8UNaGsZoSwl7noHxgSWYD3qSIIHT4z9u8cgGZYGeRdsj9Y//g+f7zbnwq+7BTwubcSwDWKB9cwji8GseDqx4KrFwOZi8GQPOoJycPuE+QD9GngS/3lhp82muBfsuNd/HjogucTAzzqCuS26MP+QRTaOrqnLKz4FIww/hY6fEpX9w+NwD+/GWsf5EBhzPrnD378Z/A5BF4zBJLHvSdAFyjBTOBLH3yCn9XtZmX5FNn/suoKLul7oaKmmVleLQyoM/0OocOnC6Pov6ChG4f8SqDsksW4/gWDrx8LGe0wSB73gcRhj6+Hf8gdEvtcsUxBe1xwJ7D28cePlv+jkhZU/rZFcnqZ0LN3M1EAkcCnC2vuHoRFfDVWUcr3TjoWBL5BHNi6EZA8+ZQBP1f4Un89wvfLdWcE/zv5S+Bs0odfaDqTwZsJDGG/R2TwqegzqKAJau75kLubsSDwOdejIKXhC4kjHvMCn1z/D+sMvgifhnWsNVdxw8JPZKnbmSiSyOBTzX/uu04c9i9dEPhsAn/6GR/8fME/5I7/bDb7AvyL+LeiJg5dcEV1XSuz5m4mIETxHpHBH3n/Ho2dA7gYWgb5+bR8o3gw4M/4QeKo57zD/1nNZtqg70clbWzYZ47E1NIvLpoQBfDx3yky+IKo3+hlBZQo2zcuvTuXoR5bLxpSn4KfR8v/dYc9k9X7mNH7GOxRpo+GdS7uscwU7fiGXozPRQafGoPG/PZJFPRlzx2+cTw4N2MgedYfrPEWT+DnDf4TsHbfxTIFrc9cPwV4lL7VNvRBbX0bU3u3GIGPvyaRwqcLeZxRj99opo8i/rGJnVlbvkkCOAaxkDzHB88SAB9/PMwP+gRj+/HHGY3zmYzfE0jsdcYyxc+Hez8p62D7YXukZLwV+YTNeMDTPRc5/Ke5jdj0uPDr4Jvz07sc/ZeQPPccrKMeIPDChk/uXlnNGE+D05gdNaZr8MX0P5HD985pwAaa5fsqy08EWz8Gkuefg3XMSyjwWXucJiR6yN3/uuYqjOyCmA0VaEeNb+UhUvgU9N1Pq8PaB7N3+1zzpI/gT3iDdcxz4eEfdMevuxyxTJ7f59Ps3o/KOjih8wiVNS2LMos3nSKKDL6gvs8msRorXWcZ8BH4m9GQPO8P1klvsI57CQf+IXf8omb7Yaj3k/JlqP5Ne+LUYnBweM7Lp6YDtRD/Ex182thpYBh6UeVQdJrFUM/iFTgGMZA46weWhjdYJ7yECp+SPNTHfyevheVqtxAUmf1N9fPjlUhk8GmYV9PehzPBM0/y0Bw+Wy8SEmefgXXKR/jwDz7GD2v0QKVa0utvwOFBNHidX78J4ngQonguMvh0587XVR044Fs8fXqXds2wTgbXLBHS18Mhcc4PrNNP+fDJ5QvR8iX/uM+UX0v/dgPXzPyZaVqqTaQu7Ft8iAx+98AIPLIbsNkt94vwOWYJkNIN44P/56lo4B98Asru/bj8Ck7quKG8smlR5+1noowig1/T0Q/dyAp+sDfllG4K2CZxkLwcDInzfmCd8QVLVPD/esSUZu8/5YS84lqmMGMx1OHNBPJU7xE6fHKRtIgzuaoDKk/yoUh5/c/gU+VuCti3XkJSKxCs88/Aon5eRPBlDnuA88c9qB+7g9KKxrHIfqom/XZeFzp8ms1r7xuCVWINFF2ymRm9T+FzrV9B+mYkJDSfg3XBDyyyehHBlznkDs5hD+zX9kJKZvmin6mbjeoJFT5ZPQV6iRUd2O45Vrs/tmKHKnm4t1+DbZEAqRsvIKEVANZF/zH4orF8sngljaf4Wz8U0Slv0Ns38M0lcqZTBqHCp3173nUO4HTQGyjfm1i3T+BlTGIhcTUELO0AsMjqRQxf9rgPjphGIzG75psdyy8K+GT1tGDDKqkaa9zyoEDr9Zz45Vsc6yRI6UdCQjcYLJ0AsMjqRQhf5ogHFDR8cco6FmlFDeijWnvS3P+yh1Asn8bCtFPX46x6bPUqhiKt1B0DL2MWB8kboWBdCQbrciDf6rWeiwS+9BF3yBwl8E+h6ZiAygbeV9/I4FvQE6HA7xwYRmBRM3b6lkCRqnWdMsCxS4aUURQkroWApRsE1pUgkcPnHPfC6nN+sPDIQFN7L+hWKt/6cG46JVww+IIhXWvvEJ4XtWAf1ejfzwbX8TVkLOIhoR8O1vUQsK4Gixw+Y+2nfLBPPxwPQwvQ2NbDVBkt8H5I03ERyv8WDD51kQ1dA3DNbMAO32LIOmdCxiYRkrciwdIL5YO/Fixy+FJHPCGv4YNz9vGIzapB3wDNzgml7UX+JfMOnyZs6EYMKTU86MZUYhPV5Tu+hpTZS0gYRoB1M4wPn/p5EcKnFbjcEz7YcT0UToF5KK1pR/8SAk+aNy/wyVIIOtXi13cOwD2nEfufl0LRKQ3SlrGQMI4EyzAcLP0wkcOnJdfs415YcdYf/9jGIjG3Drzu/67x+0xdypzhk4ekZdftfcOIeNuGE8GlUHbNANsmHpKmUZAwiQDrVjhYhi9EDl/qqCcUTj+D+rUQuEcUo7mjl4nmaRi3RDz9BL2YNXzqyyk3T3fXpmDuTWsvAoubcSm8DKvvp0PWPgkS5jFgmUaBZRIJlnEEWEaig09LstknvLHinD926r2AhXcmCipax+6svRSRf+Q/K/jk3qk/L2/vQ1R5G2xTanDoeSGUnFMgbZ8ICcsYSFhEg2UWBZZppIjhe0LqmDfkTj3F/luRsPHNRmZpEwaGxvayXdrcGQ34DD4BJsseGB5ldtCkSZiK9j4k1/Dgk98Ik8RKnAotgapnNpRcUsB2TISkbSxYVjFgWcaAZS5a+FLHvcDR8MXqi/44aROHe6GFSC9pQmtnP3Or1P/mcftHm57Zswnwmf57eBQlzd0ILGqCU0YNrsWU4WhIEXY8y8da90xwnZMhcScRLPsEsOziwLJ5CZb1ywWGP/msnoSGNyQ1vCF10gfsU77gnPLFb5oB0HJ6haBX5Sh/x0Nv/7dXWDkzdHN/1wT4dDqy+qr2XgQVNUIv9g32+GZjzZMMKD/OhOyDNEg7JUHCIQGs2/F8+GT1woB/jubzn4H1jy8kTj9lhDZVkr8QgFWXAnDMKgZu4UUoqWlnbm5M978dGvnvztDNFf9n8AUKQG6/e3AYdbw+pFS3wT27FvoxpTj2PBfqnhnY6p6J3x6mY4VLMuQdE8G9HQe2TSxkrF9C2jIGUhbRkDSLgqRJJCRuRUCChnoGLyYO9SjDR2N93SBIXAmCxOVARiR1AiGlEwhprUDIaAUwd72Q0wrE8ishWHfjBbYZRmKfaRQu30+BW2QJssqa0d41wNzVmu5CKX7MrAUmhU8fpS6A+n+K7mlihoowyCvw+oZQ1daL5MpWBOS/g3NKBfQjinAxKA9Hn+bggGcWtj9MwybnZKx1TISSdSxkzaPBNo6EjFE4pAxeQPJmGCT1wiB5IwRS10MgfT0EMtdCwb0eAkW9MKwxisBGk2jssIzF3w5J0HB+hatP0nA7KB/+r8qRXtqE+rYekHVTfoEpoqRCSnEQNzPqY++aEv5UZ6EG5id0RpmgsGdwGK09A4yHKGnsRHZtBxLftiCyuBGhBfXwSa/Go+QK3Et8C+eEMjjGlsIushjW4UWwjSjC7chiOMWUwuXlGzyIfQPPpHIEplcjIqcOSUWNyKtqQ1k9D00dfejqG2KsmyZcmLG5GPZUmGb0+qzhz+is494kUJTBYVKWEWYnrp6BYfT0D4GOdF96Gn7RLcCojx4ZEVvwuOZb0KcLDp+unulCxroR8hyTytj7FvTXik8+oQWEAn/CN4r/WDQtIIa/aFAI/0LE8IXf5ovmG8XwFw0K4V+IGL7w23zRfOP/A8//r43Qil65AAAAAElFTkSuQmCC;" parent="1" vertex="1">
          <mxGeometry x="1075.97" y="1615.5" width="108.06" height="97" as="geometry" />
        </mxCell>
        <mxCell id="JLn7KphtzS8eRCRagWTE-15" value="&lt;font style=&quot;font-size: 15px&quot; color=&quot;#808080&quot;&gt;mount secret&amp;nbsp;&lt;/font&gt;" style="rounded=1;absoluteArcSize=1;arcSize=2;html=1;strokeColor=none;gradientColor=none;shadow=0;dashed=0;fontSize=12;fontColor=#9E9E9E;align=left;verticalAlign=top;spacing=10;spacingTop=-4;fillColor=#99CCFF;" parent="1" vertex="1">
          <mxGeometry x="1078.25" y="1738" width="103.75" height="42" as="geometry" />
        </mxCell>
        <mxCell id="JLn7KphtzS8eRCRagWTE-16" value="" style="edgeStyle=orthogonalEdgeStyle;fontSize=12;html=1;endArrow=blockThin;endFill=1;rounded=0;strokeWidth=2;endSize=4;startSize=4;dashed=0;strokeColor=#4284F3;exitX=0.5;exitY=0;exitDx=0;exitDy=0;entryX=0.5;entryY=1;entryDx=0;entryDy=0;" parent="1" source="JLn7KphtzS8eRCRagWTE-2" target="JLn7KphtzS8eRCRagWTE-15" edge="1">
          <mxGeometry width="100" relative="1" as="geometry">
            <mxPoint x="1099" y="1860" as="sourcePoint" />
            <mxPoint x="1199" y="1860" as="targetPoint" />
          </mxGeometry>
        </mxCell>
        <mxCell id="JLn7KphtzS8eRCRagWTE-17" value="&lt;font style=&quot;font-size: 15px&quot;&gt;ES&lt;/font&gt;" style="text;html=1;strokeColor=none;fillColor=none;align=center;verticalAlign=middle;whiteSpace=wrap;rounded=0;shadow=1;" parent="1" vertex="1">
          <mxGeometry x="1496" y="1577.5" width="60" height="20" as="geometry" />
        </mxCell>
        <mxCell id="JLn7KphtzS8eRCRagWTE-18" value="&lt;div style=&quot;text-align: justify&quot;&gt;&lt;span&gt;&lt;font color=&quot;#000000&quot; style=&quot;font-size: 15px&quot;&gt;&amp;nbsp; &amp;nbsp; &amp;nbsp; &amp;nbsp; &amp;nbsp;FluentBit&lt;/font&gt;&lt;/span&gt;&lt;/div&gt;" style="shape=mxgraph.gcp2.doubleRect;strokeColor=#dddddd;fillColor=#ffffff;shadow=1;strokeWidth=1;fontSize=11;fontColor=#9E9E9E;align=center;html=1;" parent="1" vertex="1">
          <mxGeometry x="628" y="1560" width="120" height="60" as="geometry" />
        </mxCell>
        <mxCell id="JLn7KphtzS8eRCRagWTE-19" value="" style="shape=image;verticalLabelPosition=bottom;labelBackgroundColor=#ffffff;verticalAlign=top;aspect=fixed;imageAspect=0;image=data:image/jpeg,/9j/4AAQSkZJRgABAQAAAQABAAD/2wCEAAkGBw8QDw0PDg8PEBAQDxAPDxANDw8QDg8PFhEWFhYRFRMYHSggJBolGxMWIjIiJSkrLjouFx8zODM4NygtMCsBCgoKDg0OGxAQGy0lICUtLS0tLS0tLS0vLy0tLS0tLS0tLS0tLS0tLS0tLS0tLSstLS0tLS0tLS0tLS0tLS0tLf/AABEIAOEA4QMBEQACEQEDEQH/xAAbAAEAAQUBAAAAAAAAAAAAAAAABgEDBAUHAv/EAD0QAAIBAgIHBAcGBQUBAAAAAAABAgMRBAYFEiExQVFhEyKBkTJCYnGhscEHFCNSctEzQ1OCkhYkY6LwFf/EABoBAQADAQEBAAAAAAAAAAAAAAADBAUBAgb/xAArEQEAAgEEAQIEBwEBAAAAAAAAAQIDBBEhMRIFIhMyQVEUQmFxgZGxUiP/2gAMAwEAAhEDEQA/AO4gAAAAAAAAAAAAAAAAAAAAAAAAAAAAAAAAAAAAAAAAAAAAAAAAAAAAAAAAAAAAAAAAAAAAAAAAAAAAAAAAAAAAAAAAAAAAAAAAAAAAAAAAAAAAAAAAAAAAAAAAAAAAAAAAAAAAAAAAAAAAAAAAAAAAAAAAAAAAAAAAAAAAAAAAAAACjYC4FQAAAAAAAAAAAAAAAAAAAAAAAAAAAAAADnn2sV60Hg9Sc4032l9STinUWra9uj2eJf0Naz5bqupmY6lGtEZ2x2HsnU7eC9Sv3nbpP0vmWr6THf8ARDXPaqeaDz3g8Q4wqN4eo+FX+G3yVTd52KGXSXpz3CxTUUt3wlaknZp3T3NbmVVjdUAAAAAAAAAAAAAAAAAAAAAAAAAAAACP540T96wVWMVepT/Gp2W1yjviverrxJ9Pk8MkSizU8quKI3Ga9IPEt9oDM+KwjSpz16XGlVu4f28V4FfLpqZO3qma9Pll0vL+a8Ni7RT7OrxpVGk2/ZfEzM2mvj/WF/Fqa346lICusgAAAAAAAAAAAAAAAAAAAAAAAAAAUYHF89aG+6YyWqrUq96tK25be9Dwb8mjZ0mXzptPcM3PTxs0CLStL2g8rkG0007NbU1wYmIl4lNst54qU9Wli71IblU/mR9/NfEo59FFuacSsYdZbHxfmP8AHQ8JiqdWCqUpKcHucWZdqzWdrNWl63r5VZBx7AAAAAAAAAAAAAAAAAAAAAAAAABos46EWNwsqat2sPxKL9tL0fc1sJsGWcd90WWnnVxSzTcZJpptNNWaa3prmbkTE8wyZjadlxHXmXtB4l7Rx4luNBaarYaetTlv9KL9Ca5Nc+pHlxUyxtP9vNct8Ft6f06foLTtLFR7vdqJd+nJ7V1XNdTHzYLY556bWm1dM0cd/ZtkQraoAAAYGm0/mTDYKP40m5yXdpU7OpLrbgurJMWG2Tp4teIQzEfaVWbfZYanGPDtJynLxtYvV0MbcygtqNlaH2j4j18PSkvZlOD+Nzs6Cv0lFOqmO4b7R+fcJO3axqUXx1lrw847fgQX0WSOuXuusp9eG2/1LgdXW+9Urctbvf47yH8Nl/5SfisW2/kwMRnbBx9F1Kn6IWX/AGaJa6LJPfH8oLeoYo65Ysc41aj/ANvg5z6uTfwjH6kn4OK/NaEE+o3t8lN2TSx+lKm7C0qa/wCSW3yvf4Hicenj80uxm1lvyRDPwv8A9BuPavDKN1rKPaOVuNiO/wAHb27p8f4qZ92zbIrrr0HQAAAAAAFGBzD7SsvdnP75Sj3KjSrJerUe6fufz95paPPvHjLP1WLafKEJhLmX4lQ3XkenmXpHHl7QeZbHR2KlGUZRk4zjtjKLsxaItHjZUt5YredHRsuZkjXSpVbRrcPy1Oq69DI1GlnHzXpuaL1CuX22+ZI0VGoqAA1GZ9NwwWGnWltl6NKH56j3L3cX0RJixTkts8XttDiOLxVStUnVqyc6k3eUn8vd0NulYrG0Ktp3Uij2hsmeNy9hIaNp4qFZus405emtWcpW1oKPS78ilTPknN4THD1fFSMflvyjEF8eRemYiOWfO89JloHJNSqo1MTJ0YPaoL+K114L4so5tbWvFIWsWhtbm0phgct4OjbVoQk161X8SV+e36FC+pyW7leppMNfo20YpKySS5LcQrEREPQdAAAAAAAAAAABZxeGhVpzp1IqUJxcZRe5pnYmYneHLRExtLiOZdBzwWIlSldwfepTfrw/dbmbOHLGSu8MTPinHbZrYTsTbq+7IhJPcetzd7QclchKzTXA7CO1d42bSlLdJdGmt6YnaYZ871njtN8t5l1tWjiJWluhUdkpdJdepl6nSTX3Vb+h9Si21MnaVplBtPFetGEZTnJRjFOUpSdkkt7bEc8Q5vs4pnLMDx2Ico3VGneNGL2XXGbXN/KxsabD8Ov6yrWned2kiWUVl6B1DaV6KO7Qr2l0HIGXVaOMrRvf+BF8F/Uf08+Rm6zUc+ELmkwbx5ynljOaKoAAAAAAAAAAAAAAADUZm0FTxtCVKXdmu9SnxhP9nuaJcWWcdt4Q5sUZK7OK47B1KFWdGrHVnB2kvquj5mvW8WjeGDkrNZ8ZWUz0ildhWa37T1FnPNfhVjz8zu8HnDZYCd4tcmeolUzxG+8MtCVby25SbQmbI0ouniZNxiu7NJymreq0trM7UaXfmjb0HqkV9mWf2RTOGcZ4y9GknTw6e1P06rXGXJdD3g00U5nttTbz5jpFUW3mV2KOopXoI6gtLdZY0O8XiIU9uou9VkuEFvXve4g1GX4dUWOPiZYpH7y7LSpqMYxikoxSiktySVkkYk88y2612jaHsOgAAAAAAAAAAAAAAACjAjWc8sRxtPXp2jiKa7knumt/ZyfLk+BYwZpxzz0qarTRlrx25DXoyhKUJxcZxbjKMlZxa4NGrWfKN4YN6zWdpeTqOQ48SycH63gcVNR9GYjm6lMqnHGNiMHGe1d18+D956izS0nqV8PttzDDlhJx4X/TtPcTDcx+pYMkcTt+6sKUvyvyO7w9X1WKPzQyqWGe+Xkt55m+zK1HqMbeON1rJ+h/u2HWsrVatpTvviuEPD5tmRqMnnf9G76dppxY/K/zT2kCIGiAAAAAAAAAAAAAAAAAACgEWzllOGMj2tLVhiYrZJ7I1V+WX0ZYwZ5pxPSlqtLGSPKO3J8Th50pyp1YOE4u0oyVmmakWi0bwwL1tWdphbOoZZeDjsb5s4p6izKRxUlU44B0BuASPJWiO3r9rNfhUWm77pVN8Y+G/wAitqcnjXaGz6Ro/jZPO3Vf9dMsZz6/ZUOgAAAAAAAAAAAAAAAAAAAUA0eZMs0MbDvrUqxVoVYpay6PnHoS4s1sc8Kuo0tc0c9uVaZ0BicJPUrQeq3aNSO2nP3Pg+j2mnjy1v0+e1Onvhn3Rx93mlGyS5HuWNkneVwIg4AcALuGw86s4U6avOclGK6v6HLWisbylw4rZbxWv1dc0No2OGowox9VXlL803vkZOS83tvL7zS6euDFFIZ54WQAAAAAAAAAAAAAAAAAAAAABcCAZ202qsnhqTvThL8SS3SmvVXRfM7W20srW5ov7O4Q9x5FymptHzMLLo6z8vChZjLWVG+lyVLnuJhDOO0fRS51zwt9nl1EElcF5dFyNoF0ofea0bVai7kWttOm+ftP9upQ1Obynxjp9V6VoIw1+Jbuf8S4qNkAAAAAAAAAAAAAAAAAAAAAAARTNmYezUqFB997Kk16i/Kva+R4mynqM+0eNe0Dkdqy5WZE9UUvDJqopeGTQjnZ4ZNCKdkzyTlfXcMViI9xd6jTkvTfCcly5FbUZ/y1a2g0O/8A6X/iHQkii3FQ6AAAAAAAAAAAAAAAAAAAAAo2BFMw5ltrUsM9u6VVbo9I9epBbLG+0KmbPt7aoVM5VnWWZk1UcrTJqopW2TVRy8Nf+RNCPaZ6TXKuTm3GvjI2W+FF8eTn+3nyIcmf6Vamk0HV8n9J6kVWzCoAAAAAAAAAAAAAAAAAAAADAxcbj6dGOtUlbkltk/cjxfJWnblrRHaG6Z09Ur3jG9Onu1U+9Je0/oU755vxCpkyzbpopnKqtliZPVFKzMmqilZkTQjlmaL0LiMS7UYPV4zl3aa8forkvlEPWPTXyTtWE/0BlWjhrTl+LWXryWyP6Fw9+8jtkmWtg0dMXM8z90gRGuKgAAAAAAAAAAAAAAAAAAAAxsXjqdJd+Vulm2/AiyZq4+bDQ4/McndUY6vtSs5eC3Gfk18zxV4myO4irKbcptyb3tu7K/laZ5V7TuxpktUNliZPVFMK0sBWqO1OlUl1jCVvPcWKxLz8O09Q2mEydiqlu01KUfaetLyX7k8Qkro7274SHRuT8LSs6idaXOp6H+K2edz3us00dK98pDCCSSikktiSVkvA4tREQ9B0AAAAAAAAAAAAAAAAAAAAAAo4p79vvOTWJGPU0fRl6VKD/tRHOGk9w5tCy9DYZ/yYfE58DH9nPGBaGwv9Cn4q56jFSPo54V+y/SwNGPo0qcf0wimeorEO+Nfsv6p6eiwCwFQAAAAAAAAAAAAAAAAAAAAAAAAAAAAAAAAAAAAAAAAAAAAAAAAAAAAAAAAAAAAAAAAAAAAAAAAAAAAAAAAAAAAAAAAAAAAAAAAAAAAAAAAAAAAAAAAAAAAAAAAAAAAAAAAAAAAAAAAAAAAAAAAAAAAAAAAAAAAAAAAAAAAAAAAAAAAAAAAAAAAAAAAAAAAAAAAAAAAAAAAAAAAAAAAAAAAAAAAAAAAAAAAAAAAAAAAAAAAAAAAAAAAAAAAAAAAAAAB//9k=;" parent="1" vertex="1">
          <mxGeometry x="639" y="1567.5" width="40" height="40" as="geometry" />
        </mxCell>
        <mxCell id="JLn7KphtzS8eRCRagWTE-20" value="&lt;div style=&quot;text-align: justify&quot;&gt;&lt;span style=&quot;color: rgb(0 , 0 , 0) ; font-size: 15px&quot;&gt;&amp;nbsp; &amp;nbsp; &amp;nbsp; &amp;nbsp; &amp;nbsp;FluentBit&lt;/span&gt;&lt;br&gt;&lt;/div&gt;" style="shape=mxgraph.gcp2.doubleRect;strokeColor=#dddddd;fillColor=#ffffff;shadow=1;strokeWidth=1;fontSize=11;fontColor=#9E9E9E;align=center;html=1;" parent="1" vertex="1">
          <mxGeometry x="629" y="1634" width="120" height="60" as="geometry" />
        </mxCell>
        <mxCell id="JLn7KphtzS8eRCRagWTE-21" value="" style="shape=image;verticalLabelPosition=bottom;labelBackgroundColor=#ffffff;verticalAlign=top;aspect=fixed;imageAspect=0;image=data:image/jpeg,/9j/4AAQSkZJRgABAQAAAQABAAD/2wCEAAkGBw8QDw0PDg8PEBAQDxAPDxANDw8QDg8PFhEWFhYRFRMYHSggJBolGxMWIjIiJSkrLjouFx8zODM4NygtMCsBCgoKDg0OGxAQGy0lICUtLS0tLS0tLS0vLy0tLS0tLS0tLS0tLS0tLS0tLS0tLSstLS0tLS0tLS0tLS0tLS0tLf/AABEIAOEA4QMBEQACEQEDEQH/xAAbAAEAAQUBAAAAAAAAAAAAAAAABgEDBAUHAv/EAD0QAAIBAgIHBAcGBQUBAAAAAAABAgMRBAYFEiExQVFhEyKBkTJCYnGhscEHFCNSctEzQ1OCkhYkY6LwFf/EABoBAQADAQEBAAAAAAAAAAAAAAADBAUBAgb/xAArEQEAAgEEAQIEBwEBAAAAAAAAAQIDBBEhMRIFIhMyQVEUQmFxgZGxUiP/2gAMAwEAAhEDEQA/AO4gAAAAAAAAAAAAAAAAAAAAAAAAAAAAAAAAAAAAAAAAAAAAAAAAAAAAAAAAAAAAAAAAAAAAAAAAAAAAAAAAAAAAAAAAAAAAAAAAAAAAAAAAAAAAAAAAAAAAAAAAAAAAAAAAAAAAAAAAAAAAAAAAAAAAAAAAAAAAAAAAAAAAAAAAAAACjYC4FQAAAAAAAAAAAAAAAAAAAAAAAAAAAAAADnn2sV60Hg9Sc4032l9STinUWra9uj2eJf0Naz5bqupmY6lGtEZ2x2HsnU7eC9Sv3nbpP0vmWr6THf8ARDXPaqeaDz3g8Q4wqN4eo+FX+G3yVTd52KGXSXpz3CxTUUt3wlaknZp3T3NbmVVjdUAAAAAAAAAAAAAAAAAAAAAAAAAAAACP540T96wVWMVepT/Gp2W1yjviverrxJ9Pk8MkSizU8quKI3Ga9IPEt9oDM+KwjSpz16XGlVu4f28V4FfLpqZO3qma9Pll0vL+a8Ni7RT7OrxpVGk2/ZfEzM2mvj/WF/Fqa346lICusgAAAAAAAAAAAAAAAAAAAAAAAAAAUYHF89aG+6YyWqrUq96tK25be9Dwb8mjZ0mXzptPcM3PTxs0CLStL2g8rkG0007NbU1wYmIl4lNst54qU9Wli71IblU/mR9/NfEo59FFuacSsYdZbHxfmP8AHQ8JiqdWCqUpKcHucWZdqzWdrNWl63r5VZBx7AAAAAAAAAAAAAAAAAAAAAAAAABos46EWNwsqat2sPxKL9tL0fc1sJsGWcd90WWnnVxSzTcZJpptNNWaa3prmbkTE8wyZjadlxHXmXtB4l7Rx4luNBaarYaetTlv9KL9Ca5Nc+pHlxUyxtP9vNct8Ft6f06foLTtLFR7vdqJd+nJ7V1XNdTHzYLY556bWm1dM0cd/ZtkQraoAAAYGm0/mTDYKP40m5yXdpU7OpLrbgurJMWG2Tp4teIQzEfaVWbfZYanGPDtJynLxtYvV0MbcygtqNlaH2j4j18PSkvZlOD+Nzs6Cv0lFOqmO4b7R+fcJO3axqUXx1lrw847fgQX0WSOuXuusp9eG2/1LgdXW+9Urctbvf47yH8Nl/5SfisW2/kwMRnbBx9F1Kn6IWX/AGaJa6LJPfH8oLeoYo65Ysc41aj/ANvg5z6uTfwjH6kn4OK/NaEE+o3t8lN2TSx+lKm7C0qa/wCSW3yvf4Hicenj80uxm1lvyRDPwv8A9BuPavDKN1rKPaOVuNiO/wAHb27p8f4qZ92zbIrrr0HQAAAAAAFGBzD7SsvdnP75Sj3KjSrJerUe6fufz95paPPvHjLP1WLafKEJhLmX4lQ3XkenmXpHHl7QeZbHR2KlGUZRk4zjtjKLsxaItHjZUt5YredHRsuZkjXSpVbRrcPy1Oq69DI1GlnHzXpuaL1CuX22+ZI0VGoqAA1GZ9NwwWGnWltl6NKH56j3L3cX0RJixTkts8XttDiOLxVStUnVqyc6k3eUn8vd0NulYrG0Ktp3Uij2hsmeNy9hIaNp4qFZus405emtWcpW1oKPS78ilTPknN4THD1fFSMflvyjEF8eRemYiOWfO89JloHJNSqo1MTJ0YPaoL+K114L4so5tbWvFIWsWhtbm0phgct4OjbVoQk161X8SV+e36FC+pyW7leppMNfo20YpKySS5LcQrEREPQdAAAAAAAAAAABZxeGhVpzp1IqUJxcZRe5pnYmYneHLRExtLiOZdBzwWIlSldwfepTfrw/dbmbOHLGSu8MTPinHbZrYTsTbq+7IhJPcetzd7QclchKzTXA7CO1d42bSlLdJdGmt6YnaYZ871njtN8t5l1tWjiJWluhUdkpdJdepl6nSTX3Vb+h9Si21MnaVplBtPFetGEZTnJRjFOUpSdkkt7bEc8Q5vs4pnLMDx2Ico3VGneNGL2XXGbXN/KxsabD8Ov6yrWned2kiWUVl6B1DaV6KO7Qr2l0HIGXVaOMrRvf+BF8F/Uf08+Rm6zUc+ELmkwbx5ynljOaKoAAAAAAAAAAAAAAADUZm0FTxtCVKXdmu9SnxhP9nuaJcWWcdt4Q5sUZK7OK47B1KFWdGrHVnB2kvquj5mvW8WjeGDkrNZ8ZWUz0ildhWa37T1FnPNfhVjz8zu8HnDZYCd4tcmeolUzxG+8MtCVby25SbQmbI0ouniZNxiu7NJymreq0trM7UaXfmjb0HqkV9mWf2RTOGcZ4y9GknTw6e1P06rXGXJdD3g00U5nttTbz5jpFUW3mV2KOopXoI6gtLdZY0O8XiIU9uou9VkuEFvXve4g1GX4dUWOPiZYpH7y7LSpqMYxikoxSiktySVkkYk88y2612jaHsOgAAAAAAAAAAAAAAACjAjWc8sRxtPXp2jiKa7knumt/ZyfLk+BYwZpxzz0qarTRlrx25DXoyhKUJxcZxbjKMlZxa4NGrWfKN4YN6zWdpeTqOQ48SycH63gcVNR9GYjm6lMqnHGNiMHGe1d18+D956izS0nqV8PttzDDlhJx4X/TtPcTDcx+pYMkcTt+6sKUvyvyO7w9X1WKPzQyqWGe+Xkt55m+zK1HqMbeON1rJ+h/u2HWsrVatpTvviuEPD5tmRqMnnf9G76dppxY/K/zT2kCIGiAAAAAAAAAAAAAAAAAACgEWzllOGMj2tLVhiYrZJ7I1V+WX0ZYwZ5pxPSlqtLGSPKO3J8Th50pyp1YOE4u0oyVmmakWi0bwwL1tWdphbOoZZeDjsb5s4p6izKRxUlU44B0BuASPJWiO3r9rNfhUWm77pVN8Y+G/wAitqcnjXaGz6Ro/jZPO3Vf9dMsZz6/ZUOgAAAAAAAAAAAAAAAAAAAUA0eZMs0MbDvrUqxVoVYpay6PnHoS4s1sc8Kuo0tc0c9uVaZ0BicJPUrQeq3aNSO2nP3Pg+j2mnjy1v0+e1Onvhn3Rx93mlGyS5HuWNkneVwIg4AcALuGw86s4U6avOclGK6v6HLWisbylw4rZbxWv1dc0No2OGowox9VXlL803vkZOS83tvL7zS6euDFFIZ54WQAAAAAAAAAAAAAAAAAAAAABcCAZ202qsnhqTvThL8SS3SmvVXRfM7W20srW5ov7O4Q9x5FymptHzMLLo6z8vChZjLWVG+lyVLnuJhDOO0fRS51zwt9nl1EElcF5dFyNoF0ofea0bVai7kWttOm+ftP9upQ1Obynxjp9V6VoIw1+Jbuf8S4qNkAAAAAAAAAAAAAAAAAAAAAAARTNmYezUqFB997Kk16i/Kva+R4mynqM+0eNe0Dkdqy5WZE9UUvDJqopeGTQjnZ4ZNCKdkzyTlfXcMViI9xd6jTkvTfCcly5FbUZ/y1a2g0O/8A6X/iHQkii3FQ6AAAAAAAAAAAAAAAAAAAAAo2BFMw5ltrUsM9u6VVbo9I9epBbLG+0KmbPt7aoVM5VnWWZk1UcrTJqopW2TVRy8Nf+RNCPaZ6TXKuTm3GvjI2W+FF8eTn+3nyIcmf6Vamk0HV8n9J6kVWzCoAAAAAAAAAAAAAAAAAAAADAxcbj6dGOtUlbkltk/cjxfJWnblrRHaG6Z09Ur3jG9Onu1U+9Je0/oU755vxCpkyzbpopnKqtliZPVFKzMmqilZkTQjlmaL0LiMS7UYPV4zl3aa8forkvlEPWPTXyTtWE/0BlWjhrTl+LWXryWyP6Fw9+8jtkmWtg0dMXM8z90gRGuKgAAAAAAAAAAAAAAAAAAAAxsXjqdJd+Vulm2/AiyZq4+bDQ4/McndUY6vtSs5eC3Gfk18zxV4myO4irKbcptyb3tu7K/laZ5V7TuxpktUNliZPVFMK0sBWqO1OlUl1jCVvPcWKxLz8O09Q2mEydiqlu01KUfaetLyX7k8Qkro7274SHRuT8LSs6idaXOp6H+K2edz3us00dK98pDCCSSikktiSVkvA4tREQ9B0AAAAAAAAAAAAAAAAAAAAAAo4p79vvOTWJGPU0fRl6VKD/tRHOGk9w5tCy9DYZ/yYfE58DH9nPGBaGwv9Cn4q56jFSPo54V+y/SwNGPo0qcf0wimeorEO+Nfsv6p6eiwCwFQAAAAAAAAAAAAAAAAAAAAAAAAAAAAAAAAAAAAAAAAAAAAAAAAAAAAAAAAAAAAAAAAAAAAAAAAAAAAAAAAAAAAAAAAAAAAAAAAAAAAAAAAAAAAAAAAAAAAAAAAAAAAAAAAAAAAAAAAAAAAAAAAAAAAAAAAAAAAAAAAAAAAAAAAAAAAAAAAAAAAAAAAAAAAAAAAAAAAAAAAAAAAAAAAAAAAAAAAAAAAAAAAAAAAAAAAAAAAAAAAAAAAAAAAAAAAAAAB//9k=;" parent="1" vertex="1">
          <mxGeometry x="640" y="1641.5" width="40" height="40" as="geometry" />
        </mxCell>
        <mxCell id="JLn7KphtzS8eRCRagWTE-22" value="&lt;div style=&quot;text-align: justify&quot;&gt;&lt;span style=&quot;color: rgb(0 , 0 , 0) ; font-size: 15px&quot;&gt;&amp;nbsp; &amp;nbsp; &amp;nbsp; &amp;nbsp; &amp;nbsp;FluentBit&lt;/span&gt;&lt;br&gt;&lt;/div&gt;" style="shape=mxgraph.gcp2.doubleRect;strokeColor=#dddddd;fillColor=#ffffff;shadow=1;strokeWidth=1;fontSize=11;fontColor=#9E9E9E;align=center;html=1;" parent="1" vertex="1">
          <mxGeometry x="630" y="1708" width="120" height="60" as="geometry" />
        </mxCell>
        <mxCell id="JLn7KphtzS8eRCRagWTE-23" value="" style="shape=image;verticalLabelPosition=bottom;labelBackgroundColor=#ffffff;verticalAlign=top;aspect=fixed;imageAspect=0;image=data:image/jpeg,/9j/4AAQSkZJRgABAQAAAQABAAD/2wCEAAkGBw8QDw0PDg8PEBAQDxAPDxANDw8QDg8PFhEWFhYRFRMYHSggJBolGxMWIjIiJSkrLjouFx8zODM4NygtMCsBCgoKDg0OGxAQGy0lICUtLS0tLS0tLS0vLy0tLS0tLS0tLS0tLS0tLS0tLS0tLSstLS0tLS0tLS0tLS0tLS0tLf/AABEIAOEA4QMBEQACEQEDEQH/xAAbAAEAAQUBAAAAAAAAAAAAAAAABgEDBAUHAv/EAD0QAAIBAgIHBAcGBQUBAAAAAAABAgMRBAYFEiExQVFhEyKBkTJCYnGhscEHFCNSctEzQ1OCkhYkY6LwFf/EABoBAQADAQEBAAAAAAAAAAAAAAADBAUBAgb/xAArEQEAAgEEAQIEBwEBAAAAAAAAAQIDBBEhMRIFIhMyQVEUQmFxgZGxUiP/2gAMAwEAAhEDEQA/AO4gAAAAAAAAAAAAAAAAAAAAAAAAAAAAAAAAAAAAAAAAAAAAAAAAAAAAAAAAAAAAAAAAAAAAAAAAAAAAAAAAAAAAAAAAAAAAAAAAAAAAAAAAAAAAAAAAAAAAAAAAAAAAAAAAAAAAAAAAAAAAAAAAAAAAAAAAAAAAAAAAAAAAAAAAAAACjYC4FQAAAAAAAAAAAAAAAAAAAAAAAAAAAAAADnn2sV60Hg9Sc4032l9STinUWra9uj2eJf0Naz5bqupmY6lGtEZ2x2HsnU7eC9Sv3nbpP0vmWr6THf8ARDXPaqeaDz3g8Q4wqN4eo+FX+G3yVTd52KGXSXpz3CxTUUt3wlaknZp3T3NbmVVjdUAAAAAAAAAAAAAAAAAAAAAAAAAAAACP540T96wVWMVepT/Gp2W1yjviverrxJ9Pk8MkSizU8quKI3Ga9IPEt9oDM+KwjSpz16XGlVu4f28V4FfLpqZO3qma9Pll0vL+a8Ni7RT7OrxpVGk2/ZfEzM2mvj/WF/Fqa346lICusgAAAAAAAAAAAAAAAAAAAAAAAAAAUYHF89aG+6YyWqrUq96tK25be9Dwb8mjZ0mXzptPcM3PTxs0CLStL2g8rkG0007NbU1wYmIl4lNst54qU9Wli71IblU/mR9/NfEo59FFuacSsYdZbHxfmP8AHQ8JiqdWCqUpKcHucWZdqzWdrNWl63r5VZBx7AAAAAAAAAAAAAAAAAAAAAAAAABos46EWNwsqat2sPxKL9tL0fc1sJsGWcd90WWnnVxSzTcZJpptNNWaa3prmbkTE8wyZjadlxHXmXtB4l7Rx4luNBaarYaetTlv9KL9Ca5Nc+pHlxUyxtP9vNct8Ft6f06foLTtLFR7vdqJd+nJ7V1XNdTHzYLY556bWm1dM0cd/ZtkQraoAAAYGm0/mTDYKP40m5yXdpU7OpLrbgurJMWG2Tp4teIQzEfaVWbfZYanGPDtJynLxtYvV0MbcygtqNlaH2j4j18PSkvZlOD+Nzs6Cv0lFOqmO4b7R+fcJO3axqUXx1lrw847fgQX0WSOuXuusp9eG2/1LgdXW+9Urctbvf47yH8Nl/5SfisW2/kwMRnbBx9F1Kn6IWX/AGaJa6LJPfH8oLeoYo65Ysc41aj/ANvg5z6uTfwjH6kn4OK/NaEE+o3t8lN2TSx+lKm7C0qa/wCSW3yvf4Hicenj80uxm1lvyRDPwv8A9BuPavDKN1rKPaOVuNiO/wAHb27p8f4qZ92zbIrrr0HQAAAAAAFGBzD7SsvdnP75Sj3KjSrJerUe6fufz95paPPvHjLP1WLafKEJhLmX4lQ3XkenmXpHHl7QeZbHR2KlGUZRk4zjtjKLsxaItHjZUt5YredHRsuZkjXSpVbRrcPy1Oq69DI1GlnHzXpuaL1CuX22+ZI0VGoqAA1GZ9NwwWGnWltl6NKH56j3L3cX0RJixTkts8XttDiOLxVStUnVqyc6k3eUn8vd0NulYrG0Ktp3Uij2hsmeNy9hIaNp4qFZus405emtWcpW1oKPS78ilTPknN4THD1fFSMflvyjEF8eRemYiOWfO89JloHJNSqo1MTJ0YPaoL+K114L4so5tbWvFIWsWhtbm0phgct4OjbVoQk161X8SV+e36FC+pyW7leppMNfo20YpKySS5LcQrEREPQdAAAAAAAAAAABZxeGhVpzp1IqUJxcZRe5pnYmYneHLRExtLiOZdBzwWIlSldwfepTfrw/dbmbOHLGSu8MTPinHbZrYTsTbq+7IhJPcetzd7QclchKzTXA7CO1d42bSlLdJdGmt6YnaYZ871njtN8t5l1tWjiJWluhUdkpdJdepl6nSTX3Vb+h9Si21MnaVplBtPFetGEZTnJRjFOUpSdkkt7bEc8Q5vs4pnLMDx2Ico3VGneNGL2XXGbXN/KxsabD8Ov6yrWned2kiWUVl6B1DaV6KO7Qr2l0HIGXVaOMrRvf+BF8F/Uf08+Rm6zUc+ELmkwbx5ynljOaKoAAAAAAAAAAAAAAADUZm0FTxtCVKXdmu9SnxhP9nuaJcWWcdt4Q5sUZK7OK47B1KFWdGrHVnB2kvquj5mvW8WjeGDkrNZ8ZWUz0ildhWa37T1FnPNfhVjz8zu8HnDZYCd4tcmeolUzxG+8MtCVby25SbQmbI0ouniZNxiu7NJymreq0trM7UaXfmjb0HqkV9mWf2RTOGcZ4y9GknTw6e1P06rXGXJdD3g00U5nttTbz5jpFUW3mV2KOopXoI6gtLdZY0O8XiIU9uou9VkuEFvXve4g1GX4dUWOPiZYpH7y7LSpqMYxikoxSiktySVkkYk88y2612jaHsOgAAAAAAAAAAAAAAACjAjWc8sRxtPXp2jiKa7knumt/ZyfLk+BYwZpxzz0qarTRlrx25DXoyhKUJxcZxbjKMlZxa4NGrWfKN4YN6zWdpeTqOQ48SycH63gcVNR9GYjm6lMqnHGNiMHGe1d18+D956izS0nqV8PttzDDlhJx4X/TtPcTDcx+pYMkcTt+6sKUvyvyO7w9X1WKPzQyqWGe+Xkt55m+zK1HqMbeON1rJ+h/u2HWsrVatpTvviuEPD5tmRqMnnf9G76dppxY/K/zT2kCIGiAAAAAAAAAAAAAAAAAACgEWzllOGMj2tLVhiYrZJ7I1V+WX0ZYwZ5pxPSlqtLGSPKO3J8Th50pyp1YOE4u0oyVmmakWi0bwwL1tWdphbOoZZeDjsb5s4p6izKRxUlU44B0BuASPJWiO3r9rNfhUWm77pVN8Y+G/wAitqcnjXaGz6Ro/jZPO3Vf9dMsZz6/ZUOgAAAAAAAAAAAAAAAAAAAUA0eZMs0MbDvrUqxVoVYpay6PnHoS4s1sc8Kuo0tc0c9uVaZ0BicJPUrQeq3aNSO2nP3Pg+j2mnjy1v0+e1Onvhn3Rx93mlGyS5HuWNkneVwIg4AcALuGw86s4U6avOclGK6v6HLWisbylw4rZbxWv1dc0No2OGowox9VXlL803vkZOS83tvL7zS6euDFFIZ54WQAAAAAAAAAAAAAAAAAAAAABcCAZ202qsnhqTvThL8SS3SmvVXRfM7W20srW5ov7O4Q9x5FymptHzMLLo6z8vChZjLWVG+lyVLnuJhDOO0fRS51zwt9nl1EElcF5dFyNoF0ofea0bVai7kWttOm+ftP9upQ1Obynxjp9V6VoIw1+Jbuf8S4qNkAAAAAAAAAAAAAAAAAAAAAAARTNmYezUqFB997Kk16i/Kva+R4mynqM+0eNe0Dkdqy5WZE9UUvDJqopeGTQjnZ4ZNCKdkzyTlfXcMViI9xd6jTkvTfCcly5FbUZ/y1a2g0O/8A6X/iHQkii3FQ6AAAAAAAAAAAAAAAAAAAAAo2BFMw5ltrUsM9u6VVbo9I9epBbLG+0KmbPt7aoVM5VnWWZk1UcrTJqopW2TVRy8Nf+RNCPaZ6TXKuTm3GvjI2W+FF8eTn+3nyIcmf6Vamk0HV8n9J6kVWzCoAAAAAAAAAAAAAAAAAAAADAxcbj6dGOtUlbkltk/cjxfJWnblrRHaG6Z09Ur3jG9Onu1U+9Je0/oU755vxCpkyzbpopnKqtliZPVFKzMmqilZkTQjlmaL0LiMS7UYPV4zl3aa8forkvlEPWPTXyTtWE/0BlWjhrTl+LWXryWyP6Fw9+8jtkmWtg0dMXM8z90gRGuKgAAAAAAAAAAAAAAAAAAAAxsXjqdJd+Vulm2/AiyZq4+bDQ4/McndUY6vtSs5eC3Gfk18zxV4myO4irKbcptyb3tu7K/laZ5V7TuxpktUNliZPVFMK0sBWqO1OlUl1jCVvPcWKxLz8O09Q2mEydiqlu01KUfaetLyX7k8Qkro7274SHRuT8LSs6idaXOp6H+K2edz3us00dK98pDCCSSikktiSVkvA4tREQ9B0AAAAAAAAAAAAAAAAAAAAAAo4p79vvOTWJGPU0fRl6VKD/tRHOGk9w5tCy9DYZ/yYfE58DH9nPGBaGwv9Cn4q56jFSPo54V+y/SwNGPo0qcf0wimeorEO+Nfsv6p6eiwCwFQAAAAAAAAAAAAAAAAAAAAAAAAAAAAAAAAAAAAAAAAAAAAAAAAAAAAAAAAAAAAAAAAAAAAAAAAAAAAAAAAAAAAAAAAAAAAAAAAAAAAAAAAAAAAAAAAAAAAAAAAAAAAAAAAAAAAAAAAAAAAAAAAAAAAAAAAAAAAAAAAAAAAAAAAAAAAAAAAAAAAAAAAAAAAAAAAAAAAAAAAAAAAAAAAAAAAAAAAAAAAAAAAAAAAAAAAAAAAAAAAAAAAAAAAAAAAAAAB//9k=;" parent="1" vertex="1">
          <mxGeometry x="641" y="1715.5" width="40" height="40" as="geometry" />
        </mxCell>
        <mxCell id="JLn7KphtzS8eRCRagWTE-24" value="" style="strokeColor=#dddddd;fillColor=#ffffff;shadow=1;strokeWidth=1;rounded=1;absoluteArcSize=1;arcSize=2;labelPosition=center;verticalLabelPosition=middle;align=center;verticalAlign=bottom;spacingLeft=0;fontColor=#999999;fontSize=12;whiteSpace=wrap;spacingBottom=2;html=1;" parent="1" vertex="1">
          <mxGeometry x="1485" y="1661" width="80" height="70" as="geometry" />
        </mxCell>
        <mxCell id="JLn7KphtzS8eRCRagWTE-25" value="&lt;span style=&quot;color: rgba(0 , 0 , 0 , 0) ; font-family: monospace ; font-size: 0px&quot;&gt;%3CmxGraphModel%3E%3Croot%3E%3CmxCell%20id%3D%220%22%2F%3E%3CmxCell%20id%3D%221%22%20parent%3D%220%22%2F%3E%3CmxCell%20id%3D%222%22%20value%3D%22%22%20style%3D%22strokeColor%3D%23dddddd%3BfillColor%3D%23ffffff%3Bshadow%3D1%3BstrokeWidth%3D1%3Brounded%3D1%3BabsoluteArcSize%3D1%3BarcSize%3D2%3BlabelPosition%3Dcenter%3BverticalLabelPosition%3Dmiddle%3Balign%3Dcenter%3BverticalAlign%3Dbottom%3BspacingLeft%3D0%3BfontColor%3D%23999999%3BfontSize%3D12%3BwhiteSpace%3Dwrap%3BspacingBottom%3D2%3Bhtml%3D1%3B%22%20vertex%3D%221%22%20parent%3D%221%22%3E%3CmxGeometry%20x%3D%22920%22%20y%3D%22310%22%20width%3D%2280%22%20height%3D%2270%22%20as%3D%22geometry%22%2F%3E%3C%2FmxCell%3E%3C%2Froot%3E%3C%2FmxGraphModel%3E&lt;/span&gt;" style="dashed=0;connectable=0;html=1;fillColor=#5184F3;strokeColor=none;shape=mxgraph.gcp2.hexIcon;prIcon=cloud_sql;part=1;labelPosition=right;verticalLabelPosition=middle;align=left;verticalAlign=middle;spacingLeft=5;fontColor=#999999;fontSize=12;" parent="1" vertex="1">
          <mxGeometry x="1496.5" y="1685.5" width="57" height="44.5" as="geometry" />
        </mxCell>
        <mxCell id="JLn7KphtzS8eRCRagWTE-26" value="&lt;font style=&quot;font-size: 15px&quot;&gt;Kafka&lt;/font&gt;" style="text;html=1;strokeColor=none;fillColor=none;align=center;verticalAlign=middle;whiteSpace=wrap;rounded=0;shadow=1;" parent="1" vertex="1">
          <mxGeometry x="1505" y="1665" width="40" height="20" as="geometry" />
        </mxCell>
        <mxCell id="JLn7KphtzS8eRCRagWTE-27" value="" style="strokeColor=#dddddd;fillColor=#ffffff;shadow=1;strokeWidth=1;rounded=1;absoluteArcSize=1;arcSize=2;labelPosition=center;verticalLabelPosition=middle;align=center;verticalAlign=bottom;spacingLeft=0;fontColor=#999999;fontSize=12;whiteSpace=wrap;spacingBottom=2;html=1;" parent="1" vertex="1">
          <mxGeometry x="1485" y="1745" width="80" height="70" as="geometry" />
        </mxCell>
        <mxCell id="JLn7KphtzS8eRCRagWTE-28" value="&lt;span style=&quot;color: rgba(0 , 0 , 0 , 0) ; font-family: monospace ; font-size: 0px&quot;&gt;%3CmxGraphModel%3E%3Croot%3E%3CmxCell%20id%3D%220%22%2F%3E%3CmxCell%20id%3D%221%22%20parent%3D%220%22%2F%3E%3CmxCell%20id%3D%222%22%20value%3D%22%22%20style%3D%22strokeColor%3D%23dddddd%3BfillColor%3D%23ffffff%3Bshadow%3D1%3BstrokeWidth%3D1%3Brounded%3D1%3BabsoluteArcSize%3D1%3BarcSize%3D2%3BlabelPosition%3Dcenter%3BverticalLabelPosition%3Dmiddle%3Balign%3Dcenter%3BverticalAlign%3Dbottom%3BspacingLeft%3D0%3BfontColor%3D%23999999%3BfontSize%3D12%3BwhiteSpace%3Dwrap%3BspacingBottom%3D2%3Bhtml%3D1%3B%22%20vertex%3D%221%22%20parent%3D%221%22%3E%3CmxGeometry%20x%3D%22920%22%20y%3D%22310%22%20width%3D%2280%22%20height%3D%2270%22%20as%3D%22geometry%22%2F%3E%3C%2FmxCell%3E%3C%2Froot%3E%3C%2FmxGraphModel%3E&lt;/span&gt;" style="dashed=0;connectable=0;html=1;fillColor=#5184F3;strokeColor=none;shape=mxgraph.gcp2.hexIcon;prIcon=cloud_sql;part=1;labelPosition=right;verticalLabelPosition=middle;align=left;verticalAlign=middle;spacingLeft=5;fontColor=#999999;fontSize=12;" parent="1" vertex="1">
          <mxGeometry x="1496.5" y="1775" width="57" height="44.5" as="geometry" />
        </mxCell>
        <mxCell id="JLn7KphtzS8eRCRagWTE-29" value="&lt;font style=&quot;font-size: 15px&quot;&gt;Loki&lt;/font&gt;" style="text;html=1;strokeColor=none;fillColor=none;align=center;verticalAlign=middle;whiteSpace=wrap;rounded=0;shadow=1;" parent="1" vertex="1">
          <mxGeometry x="1505" y="1755" width="40" height="20" as="geometry" />
        </mxCell>
        <mxCell id="JLn7KphtzS8eRCRagWTE-30" value="" style="strokeColor=#dddddd;fillColor=#ffffff;shadow=1;strokeWidth=1;rounded=1;absoluteArcSize=1;arcSize=2;labelPosition=center;verticalLabelPosition=middle;align=center;verticalAlign=bottom;spacingLeft=0;fontColor=#999999;fontSize=12;whiteSpace=wrap;spacingBottom=2;html=1;" parent="1" vertex="1">
          <mxGeometry x="1485" y="1841" width="80" height="70" as="geometry" />
        </mxCell>
        <mxCell id="JLn7KphtzS8eRCRagWTE-31" value="&lt;span style=&quot;color: rgba(0 , 0 , 0 , 0) ; font-family: monospace ; font-size: 0px&quot;&gt;%3CmxGraphModel%3E%3Croot%3E%3CmxCell%20id%3D%220%22%2F%3E%3CmxCell%20id%3D%221%22%20parent%3D%220%22%2F%3E%3CmxCell%20id%3D%222%22%20value%3D%22%22%20style%3D%22strokeColor%3D%23dddddd%3BfillColor%3D%23ffffff%3Bshadow%3D1%3BstrokeWidth%3D1%3Brounded%3D1%3BabsoluteArcSize%3D1%3BarcSize%3D2%3BlabelPosition%3Dcenter%3BverticalLabelPosition%3Dmiddle%3Balign%3Dcenter%3BverticalAlign%3Dbottom%3BspacingLeft%3D0%3BfontColor%3D%23999999%3BfontSize%3D12%3BwhiteSpace%3Dwrap%3BspacingBottom%3D2%3Bhtml%3D1%3B%22%20vertex%3D%221%22%20parent%3D%221%22%3E%3CmxGeometry%20x%3D%22920%22%20y%3D%22310%22%20width%3D%2280%22%20height%3D%2270%22%20as%3D%22geometry%22%2F%3E%3C%2FmxCell%3E%3C%2Froot%3E%3C%2FmxGraphModel%3E&lt;/span&gt;" style="dashed=0;connectable=0;html=1;fillColor=#5184F3;strokeColor=none;shape=mxgraph.gcp2.hexIcon;prIcon=cloud_sql;part=1;labelPosition=right;verticalLabelPosition=middle;align=left;verticalAlign=middle;spacingLeft=5;fontColor=#999999;fontSize=12;" parent="1" vertex="1">
          <mxGeometry x="1496.5" y="1865" width="57" height="44.5" as="geometry" />
        </mxCell>
        <mxCell id="JLn7KphtzS8eRCRagWTE-32" value="&lt;font style=&quot;font-size: 15px&quot;&gt;S3&lt;/font&gt;" style="text;html=1;strokeColor=none;fillColor=none;align=center;verticalAlign=middle;whiteSpace=wrap;rounded=0;shadow=1;" parent="1" vertex="1">
          <mxGeometry x="1505" y="1845" width="40" height="20" as="geometry" />
        </mxCell>
        <mxCell id="JLn7KphtzS8eRCRagWTE-33" value="" style="strokeColor=#dddddd;fillColor=#ffffff;shadow=1;strokeWidth=1;rounded=1;absoluteArcSize=1;arcSize=2;labelPosition=center;verticalLabelPosition=middle;align=center;verticalAlign=bottom;spacingLeft=0;fontColor=#999999;fontSize=12;whiteSpace=wrap;spacingBottom=2;html=1;" parent="1" vertex="1">
          <mxGeometry x="1485" y="1936" width="80" height="70" as="geometry" />
        </mxCell>
        <mxCell id="JLn7KphtzS8eRCRagWTE-34" value="&lt;span style=&quot;color: rgba(0 , 0 , 0 , 0) ; font-family: monospace ; font-size: 0px&quot;&gt;%3CmxGraphModel%3E%3Croot%3E%3CmxCell%20id%3D%220%22%2F%3E%3CmxCell%20id%3D%221%22%20parent%3D%220%22%2F%3E%3CmxCell%20id%3D%222%22%20value%3D%22%22%20style%3D%22strokeColor%3D%23dddddd%3BfillColor%3D%23ffffff%3Bshadow%3D1%3BstrokeWidth%3D1%3Brounded%3D1%3BabsoluteArcSize%3D1%3BarcSize%3D2%3BlabelPosition%3Dcenter%3BverticalLabelPosition%3Dmiddle%3Balign%3Dcenter%3BverticalAlign%3Dbottom%3BspacingLeft%3D0%3BfontColor%3D%23999999%3BfontSize%3D12%3BwhiteSpace%3Dwrap%3BspacingBottom%3D2%3Bhtml%3D1%3B%22%20vertex%3D%221%22%20parent%3D%221%22%3E%3CmxGeometry%20x%3D%22920%22%20y%3D%22310%22%20width%3D%2280%22%20height%3D%2270%22%20as%3D%22geometry%22%2F%3E%3C%2FmxCell%3E%3C%2Froot%3E%3C%2FmxGraphModel%3E&lt;/span&gt;" style="dashed=0;connectable=0;html=1;fillColor=#5184F3;strokeColor=none;shape=mxgraph.gcp2.hexIcon;prIcon=cloud_sql;part=1;labelPosition=right;verticalLabelPosition=middle;align=left;verticalAlign=middle;spacingLeft=5;fontColor=#999999;fontSize=12;" parent="1" vertex="1">
          <mxGeometry x="1496.5" y="1957.75" width="57" height="44.5" as="geometry" />
        </mxCell>
        <mxCell id="JLn7KphtzS8eRCRagWTE-35" value="&lt;font style=&quot;font-size: 15px&quot;&gt;...&lt;/font&gt;" style="text;html=1;strokeColor=none;fillColor=none;align=center;verticalAlign=middle;whiteSpace=wrap;rounded=0;shadow=1;" parent="1" vertex="1">
          <mxGeometry x="1505" y="1940" width="40" height="20" as="geometry" />
        </mxCell>
        <mxCell id="JLn7KphtzS8eRCRagWTE-36" value="Log Producers" style="rounded=1;absoluteArcSize=1;arcSize=2;html=1;strokeColor=none;gradientColor=none;shadow=0;dashed=0;fontSize=12;fontColor=#9E9E9E;align=left;verticalAlign=top;spacing=10;spacingTop=-4;fillColor=#E1F5FE;" parent="1" vertex="1">
          <mxGeometry x="560" y="1853" width="130" height="217" as="geometry" />
        </mxCell>
        <mxCell id="JLn7KphtzS8eRCRagWTE-37" value="" style="edgeStyle=orthogonalEdgeStyle;fontSize=12;html=1;endArrow=blockThin;endFill=1;rounded=0;strokeWidth=2;endSize=4;startSize=4;dashed=0;strokeColor=#4284F3;entryX=0.5;entryY=1;entryDx=0;entryDy=0;exitX=0.5;exitY=0;exitDx=0;exitDy=0;" parent="1" source="JLn7KphtzS8eRCRagWTE-15" edge="1">
          <mxGeometry width="100" relative="1" as="geometry">
            <mxPoint x="1130" y="1730" as="sourcePoint" />
            <mxPoint x="1129.75" y="1712" as="targetPoint" />
          </mxGeometry>
        </mxCell>
        <mxCell id="JLn7KphtzS8eRCRagWTE-38" value="&lt;font style=&quot;font-size: 15px&quot;&gt;Forward&lt;/font&gt;" style="text;html=1;strokeColor=none;fillColor=none;align=center;verticalAlign=middle;whiteSpace=wrap;rounded=0;shadow=1;fontColor=#808080;" parent="1" vertex="1">
          <mxGeometry x="793" y="1566" width="40" height="20" as="geometry" />
        </mxCell>
        <mxCell id="JLn7KphtzS8eRCRagWTE-39" value="" style="strokeColor=#dddddd;shadow=1;strokeWidth=1;rounded=1;absoluteArcSize=1;arcSize=2;" parent="1" vertex="1">
          <mxGeometry x="570" y="1890" width="100" height="40" as="geometry" />
        </mxCell>
        <mxCell id="JLn7KphtzS8eRCRagWTE-40" value="&lt;font style=&quot;font-size: 15px&quot;&gt;Apps&lt;/font&gt;" style="dashed=0;connectable=0;html=1;fillColor=#757575;strokeColor=none;shape=mxgraph.gcp2.application_system;part=1;labelPosition=right;verticalLabelPosition=middle;align=left;verticalAlign=middle;spacingLeft=5;fontSize=12;" parent="JLn7KphtzS8eRCRagWTE-39" vertex="1">
          <mxGeometry y="0.5" width="32" height="32" relative="1" as="geometry">
            <mxPoint x="5" y="-16" as="offset" />
          </mxGeometry>
        </mxCell>
        <mxCell id="JLn7KphtzS8eRCRagWTE-41" value="" style="edgeStyle=orthogonalEdgeStyle;fontSize=12;html=1;endArrow=blockThin;endFill=1;rounded=0;strokeWidth=2;endSize=4;startSize=4;dashed=0;strokeColor=#4284F3;exitX=1;exitY=0.5;exitDx=0;exitDy=0;entryX=0;entryY=0.5;entryDx=0;entryDy=0;" parent="1" source="JLn7KphtzS8eRCRagWTE-14" target="JLn7KphtzS8eRCRagWTE-27" edge="1">
          <mxGeometry width="100" relative="1" as="geometry">
            <mxPoint x="770" y="1674" as="sourcePoint" />
            <mxPoint x="1140.3" y="1740" as="targetPoint" />
            <Array as="points">
              <mxPoint x="1260" y="1664" />
              <mxPoint x="1260" y="1780" />
            </Array>
          </mxGeometry>
        </mxCell>
        <mxCell id="JLn7KphtzS8eRCRagWTE-42" value="" style="edgeStyle=orthogonalEdgeStyle;fontSize=12;html=1;endArrow=none;endFill=0;rounded=0;strokeWidth=2;endSize=4;startSize=4;dashed=0;strokeColor=#4284F3;exitX=1;exitY=0.5;exitDx=0;exitDy=0;" parent="1" source="JLn7KphtzS8eRCRagWTE-18" edge="1">
          <mxGeometry width="100" relative="1" as="geometry">
            <mxPoint x="758" y="1547" as="sourcePoint" />
            <mxPoint x="910" y="1663" as="targetPoint" />
            <Array as="points">
              <mxPoint x="910" y="1590" />
              <mxPoint x="910" y="1590" />
            </Array>
          </mxGeometry>
        </mxCell>
        <mxCell id="JLn7KphtzS8eRCRagWTE-43" value="" style="edgeStyle=orthogonalEdgeStyle;fontSize=12;html=1;endArrow=blockThin;endFill=1;rounded=0;strokeWidth=2;endSize=4;startSize=4;dashed=0;strokeColor=#4284F3;" parent="1" edge="1">
          <mxGeometry width="100" relative="1" as="geometry">
            <mxPoint x="540" y="1660" as="sourcePoint" />
            <mxPoint x="630" y="1666" as="targetPoint" />
            <Array as="points">
              <mxPoint x="610" y="1666" />
              <mxPoint x="610" y="1666" />
            </Array>
          </mxGeometry>
        </mxCell>
        <mxCell id="JLn7KphtzS8eRCRagWTE-44" value="" style="edgeStyle=orthogonalEdgeStyle;fontSize=12;html=1;endArrow=blockThin;endFill=1;rounded=0;strokeWidth=2;endSize=4;startSize=4;dashed=0;strokeColor=#4284F3;" parent="1" edge="1">
          <mxGeometry width="100" relative="1" as="geometry">
            <mxPoint x="540" y="1738" as="sourcePoint" />
            <mxPoint x="630" y="1737.5" as="targetPoint" />
            <Array as="points">
              <mxPoint x="585" y="1738" />
            </Array>
          </mxGeometry>
        </mxCell>
        <mxCell id="JLn7KphtzS8eRCRagWTE-45" value="mount" style="text;html=1;strokeColor=none;fillColor=none;align=center;verticalAlign=middle;whiteSpace=wrap;rounded=0;shadow=1;fontSize=15;fontColor=#808080;" parent="1" vertex="1">
          <mxGeometry x="564.74" y="1645" width="40" height="20" as="geometry" />
        </mxCell>
        <mxCell id="JLn7KphtzS8eRCRagWTE-46" value="&lt;font style=&quot;font-size: 15px&quot;&gt;mount&lt;/font&gt;" style="text;html=1;strokeColor=none;fillColor=none;align=center;verticalAlign=middle;whiteSpace=wrap;rounded=0;shadow=1;fontColor=#808080;" parent="1" vertex="1">
          <mxGeometry x="564.74" y="1712.5" width="40" height="20" as="geometry" />
        </mxCell>
        <mxCell id="JLn7KphtzS8eRCRagWTE-47" value="&lt;font color=&quot;#000000&quot; style=&quot;font-size: 15px&quot;&gt;secret&lt;/font&gt;" style="strokeColor=#dddddd;fillColor=#ffffff;shadow=1;strokeWidth=1;rounded=1;absoluteArcSize=1;arcSize=2;fontSize=11;fontColor=#9E9E9E;align=center;html=1;" parent="1" vertex="1">
          <mxGeometry x="630" y="1790" width="120" height="40" as="geometry" />
        </mxCell>
        <mxCell id="JLn7KphtzS8eRCRagWTE-48" value="" style="edgeStyle=orthogonalEdgeStyle;fontSize=12;html=1;endArrow=blockThin;endFill=1;rounded=0;strokeWidth=2;endSize=4;startSize=4;dashed=0;strokeColor=#4284F3;exitX=0.994;exitY=0.48;exitDx=0;exitDy=0;exitPerimeter=0;entryX=0;entryY=0.5;entryDx=0;entryDy=0;" parent="1" source="JLn7KphtzS8eRCRagWTE-68" target="JLn7KphtzS8eRCRagWTE-47" edge="1">
          <mxGeometry width="100" relative="1" as="geometry">
            <mxPoint x="692" y="1810" as="sourcePoint" />
            <mxPoint x="530" y="1810" as="targetPoint" />
            <Array as="points">
              <mxPoint x="465" y="1810" />
            </Array>
          </mxGeometry>
        </mxCell>
        <mxCell id="JLn7KphtzS8eRCRagWTE-49" value="" style="edgeStyle=orthogonalEdgeStyle;fontSize=12;html=1;endArrow=blockThin;endFill=1;rounded=0;strokeWidth=2;endSize=4;startSize=4;dashed=0;strokeColor=#4284F3;entryX=0;entryY=0.5;entryDx=0;entryDy=0;" parent="1" target="JLn7KphtzS8eRCRagWTE-6" edge="1">
          <mxGeometry width="100" relative="1" as="geometry">
            <mxPoint x="1430" y="1700" as="sourcePoint" />
            <mxPoint x="1409" y="1675" as="targetPoint" />
            <Array as="points">
              <mxPoint x="1430" y="1608" />
            </Array>
          </mxGeometry>
        </mxCell>
        <mxCell id="JLn7KphtzS8eRCRagWTE-50" value="" style="edgeStyle=orthogonalEdgeStyle;fontSize=12;html=1;endArrow=blockThin;endFill=1;rounded=0;strokeWidth=2;endSize=4;startSize=4;dashed=0;strokeColor=#4284F3;entryX=0;entryY=0.5;entryDx=0;entryDy=0;" parent="1" target="JLn7KphtzS8eRCRagWTE-24" edge="1">
          <mxGeometry width="100" relative="1" as="geometry">
            <mxPoint x="1430" y="1780" as="sourcePoint" />
            <mxPoint x="1459" y="1617.5" as="targetPoint" />
            <Array as="points">
              <mxPoint x="1430" y="1780" />
              <mxPoint x="1430" y="1696" />
            </Array>
          </mxGeometry>
        </mxCell>
        <mxCell id="JLn7KphtzS8eRCRagWTE-51" value="" style="edgeStyle=orthogonalEdgeStyle;fontSize=12;html=1;endArrow=blockThin;endFill=1;rounded=0;strokeWidth=2;endSize=4;startSize=4;dashed=0;strokeColor=#4284F3;entryX=0;entryY=0.5;entryDx=0;entryDy=0;" parent="1" target="JLn7KphtzS8eRCRagWTE-30" edge="1">
          <mxGeometry width="100" relative="1" as="geometry">
            <mxPoint x="1430" y="1780" as="sourcePoint" />
            <mxPoint x="1459" y="1706" as="targetPoint" />
            <Array as="points">
              <mxPoint x="1430" y="1780" />
              <mxPoint x="1430" y="1876" />
            </Array>
          </mxGeometry>
        </mxCell>
        <mxCell id="JLn7KphtzS8eRCRagWTE-52" value="" style="edgeStyle=orthogonalEdgeStyle;fontSize=12;html=1;endArrow=blockThin;endFill=1;rounded=0;strokeWidth=2;endSize=4;startSize=4;dashed=0;strokeColor=#4284F3;entryX=0;entryY=0.5;entryDx=0;entryDy=0;" parent="1" target="JLn7KphtzS8eRCRagWTE-33" edge="1">
          <mxGeometry width="100" relative="1" as="geometry">
            <mxPoint x="1430" y="1870" as="sourcePoint" />
            <mxPoint x="1495" y="1886" as="targetPoint" />
            <Array as="points">
              <mxPoint x="1430" y="1971" />
            </Array>
          </mxGeometry>
        </mxCell>
        <mxCell id="JLn7KphtzS8eRCRagWTE-53" value="" style="edgeStyle=orthogonalEdgeStyle;fontSize=12;html=1;endArrow=none;endFill=0;rounded=0;strokeWidth=2;endSize=4;startSize=4;dashed=0;strokeColor=#4284F3;exitX=1;exitY=0.5;exitDx=0;exitDy=0;" parent="1" source="JLn7KphtzS8eRCRagWTE-22" edge="1">
          <mxGeometry width="100" relative="1" as="geometry">
            <mxPoint x="759" y="1674" as="sourcePoint" />
            <mxPoint x="910" y="1663" as="targetPoint" />
          </mxGeometry>
        </mxCell>
        <mxCell id="JLn7KphtzS8eRCRagWTE-54" value="&lt;font style=&quot;font-size: 15px&quot;&gt;Forward&lt;/font&gt;" style="text;html=1;strokeColor=none;fillColor=none;align=center;verticalAlign=middle;whiteSpace=wrap;rounded=0;shadow=1;fontColor=#808080;" parent="1" vertex="1">
          <mxGeometry x="794" y="1640.5" width="40" height="20" as="geometry" />
        </mxCell>
        <mxCell id="JLn7KphtzS8eRCRagWTE-55" value="&lt;font style=&quot;font-size: 15px&quot;&gt;Forward&lt;/font&gt;" style="text;html=1;strokeColor=none;fillColor=none;align=center;verticalAlign=middle;whiteSpace=wrap;rounded=0;shadow=1;fontColor=#808080;" parent="1" vertex="1">
          <mxGeometry x="794" y="1714.5" width="40" height="20" as="geometry" />
        </mxCell>
        <mxCell id="JLn7KphtzS8eRCRagWTE-56" value="" style="edgeStyle=orthogonalEdgeStyle;fontSize=12;html=1;endArrow=blockThin;endFill=1;rounded=0;strokeWidth=2;endSize=4;startSize=4;dashed=0;strokeColor=#4284F3;exitX=0;exitY=0.5;exitDx=0;exitDy=0;entryX=0;entryY=0.5;entryDx=0;entryDy=0;" parent="1" source="JLn7KphtzS8eRCRagWTE-47" target="JLn7KphtzS8eRCRagWTE-18" edge="1">
          <mxGeometry width="100" relative="1" as="geometry">
            <mxPoint x="759" y="1674" as="sourcePoint" />
            <mxPoint x="1066.22" y="1673.5" as="targetPoint" />
            <Array as="points">
              <mxPoint x="540" y="1810" />
              <mxPoint x="540" y="1590" />
            </Array>
          </mxGeometry>
        </mxCell>
        <mxCell id="JLn7KphtzS8eRCRagWTE-57" value="      Fluend" style="strokeColor=#dddddd;shadow=1;strokeWidth=1;rounded=1;absoluteArcSize=1;arcSize=2;fontSize=15;" parent="1" vertex="1">
          <mxGeometry x="570" y="1947.5" width="100" height="47" as="geometry" />
        </mxCell>
        <mxCell id="JLn7KphtzS8eRCRagWTE-58" value="" style="shape=image;verticalLabelPosition=bottom;labelBackgroundColor=#ffffff;verticalAlign=top;aspect=fixed;imageAspect=0;image=data:image/png,iVBORw0KGgoAAAANSUhEUgAAAH8AAAByCAYAAAB6Iw7NAAAfd0lEQVR4Ae2dh19T2bbH31/yrjN3Zu6bmdCS0O2OXYrdcZwZu6JjpygWpEivAkqxoVQRpEuVKkjvTaQjvYTe/b3POiEKCggCCV6Sz2d9TgjJycn+rrX22muvvc//QPxYsi3wP0v2l4t/OMTwl7ASiOGL4S/hFljCP11s+WL4S7gFlvBPF1u+GP4SboEl/NPFli+G/+UWGH3/HkMj7zE48h4DwySjzN8j79/j/fsvf178jsXXAl+0fOI6Mvoebb3DyKrrQXgZDy/KuxBa2oHkqk7U8gbQOziC0fdglECsB4sP8lRXNCV8gjg8+h7tfSNIqOmFe1EXHLI6YPa6GaYpzTB+1QTr1BbcyWyDe147oss78ba1H90DI4yyiL3BVE2+eF6fFD6BI2uv7xqER1EnbHN7YJbWhlspLTBMbobhqyboJzVBP7ERNxMaYZDUDOPX7bBIaYFHTisKG3vRMziCodH3oO5C7A0WD/DxVzIpfLL4Wt4gHhV2wjqnG6aprTB+3QKjlOYJ8Am8XnwDIzfi6nEjrgH6ic24ldgEt+xW5NT3oKN/mPEg479U/HxxtMCk8Nv6RhD0tgd2uV0wTWuDSWorY/VTwb8R34DrcfW4FluPqy/f4drLetyMb8KthAZ457cjt74X7b3DTIAo7g4WB3i6is/gE5ycxn44FXTDIqN99vBj3kE3ug5XompxJboOui/rYZbYiOeF7UxMQF5F3A0sDgWYAJ/A9w6NIryyB1bZPJint80J/uWoWuhE1uBKVB30XtbDNrkJ0WU8tPUMMV5gcTTB0r2KCfBpuNbSOwy/8j5YZnXCbJ7ga0fUQCu8BtrhNdCLbYTL60a8ae79kCdYus0v2l8+AT5F+NW8QbiX9MAye37ha76ohuaLKmi9qMLlyFrcin2HmDcdaO0Zwqi4KxCJFkyAT/1xeccgHhZ1wyKLN6+Wz8APq8KlsCpcDK2E1otq3Iiqg0dmM8qa+9A/NMoMC0XSCkv0SyeF/0AI8C+EVOJCcCUuhVbBMqEeSRU88PqGligG0fzsSeGT5VsusOUT/PNBFTgfXMEowM3oOvhkN6O6rV8cDApJFybApz6/ZiH7/HFuXwD/XFA5zgaSVEA7rBoOSQ0oqO9hJo7E2cGF1YIJ8Cnab+4Zi/YXIuCbBv6ZgHKcDSjHheAqGETVIr6sg0kRkwKIHwvTAhPgUzt39o8guLwHFjSJM49DvU8Dvk8tn+D/8/wtI+fIC4RUwje7Ge94AxgcFgeDC4F/InwAgyOjiKnqgbWI4J/2L8NpvzKc9n+LswEVcEyqR/67bvQNjizE71/S55wAn1qCrD+zsQ938+ee3hVk+CjJM1PLJ/in/Mqg8ewNczwfWAGT6FrElLSjo3eImW1c0sTm8cd/Bp/OXdkxCLfiXljOMbc/V/gnn73BSd9SaDwrw+WQSvhkNqK9h68A4lBg7lowKXxe/wielXbBJqtjXnL7X2v5AvgnnpZCw7cU5wIqYR1Tg8qWXmaaWKwAc1OASeFTrV5ybQ8c8nsWBfzjPiUQyD/+5dAPq0RKRQd4fcPiqqE58J8UPg2v6niDcM7vgll6++zm88dN6c6X2xeAP+ZdjGNexTju8waaz9/CP7sRjbx+cbHIVyrApPDJnfYPj+JZCQ/W2V18+NNU8kwo5lhg+Ee9inHUsxhHvUpwwf8t7sRXI7+Wh4GhUbwX9wOzUoNJ4dMZKOFT0NQP22weTNNacWsRwT/iWYzDnkWMHPMuwZXnJYjJb0Q/U0UsTgrNVAOmhE9G1D04CveCDlhk8qat4RO25QvgH/IowiGPQpA3OOFVBNe4t2jk9YnjgBnSnxr+WOl2VkMfrLJ4jOufUQ2fENz+R/iFOOheiINPCnCYjo/zYRxchILaDvQOjAWDM2yIpfi2KeFTY5ADbe0bhls+lXS1T1m9KzrL/wj/78cFINl7Lxsn3DIRml2H1q5+cY3ANFo9LXz6HAV+KXW9sMvqYPr98XX7gtLtxQL/r8cF+PNRHva4ZmG/cyosw4qQX9POeIHFFgtS9dLw8AgGBofR2zeI1vZuvGvsQHlVC95UNKGsognVdW1obu1CV3c/876RkfkNar8In6Z5G7qG4FXcBePUtknr9hcT/L/c8nHgUT52OmdivWU8NB6lISSzFrzeQZHFAqR4NBJhgI+MYmhoBG0dPSgorkNIZA5cHsdB3zIAmje9cVrHHRraT3BK+wnOXfXEdRM/3HaNQlh0LqprWzE0PMKcZxqDnvG/vgifLpyf9OmFTWYHf9XO2IqdxWn5BD8PfzzMxV7XbKw3j8NWq3gY+ueh5B1P6CMCpv2GR9DXP4R3DR2ITSqGtVMEjl18iO1/O2Drfjts2G2F1WqmWKlijOVbb2H5Nr6s2GbMvL5uhwW27LfDAQ0XuLonoK6hY0yR5zay+SJ8gRqR9XsWdjKrdwTLtRY3/Dz8cT8XO50ysMo4BooGkdjvkITnqVVo4vV/DAjnuT+gBNnwyCj6B4fR2TOA+uYuvMqqhN39l/jzn3tYt8sKK1XNoLjlFuQ2GsxK6DPrdlpDU98XxWUNTFcg4PM1xxnDJ+vPeteL29mdjOuntXqLHv6DPOy/n4vtjulYYRQNOb1wKOpH4PSDVASm16C6pYfxBF/TcJN9htw6r2cQ5fWdiM2sgb1nKo5c9sZve22xXMUMSluMobDZCPKbDL8InbteHwIZryT0+dXbLXDp5lOUlDXMKbE1Y/iU9OkcGIFvMQ9maR0wIPiJ/LV6i6nP//ORwO3n4Q+C/yAX++7lQM0hFcqGUeBcD4XCzXBsMouBpnsmniS8RVpZC+raetDdN8QUjpDlEkimjIz667Gpbqbffv+ecblDw2TdI+jsHURtSw8y3jQjMKUSdv65OGcdDdVTbli1xxbKKqZQ2HwLcgxwgj69yG40xHJVE+w6cgca2o+x74QTVqiaMEoj+CzjAXZZwcktDu28XoyMjk6mi198bcbw6UykABVtA3DI5K/YpVW6tFBzscP//T5fAVTtX0PhZgRkdIPB1g0BWzcUq6k7sH8FrSfpcIksQWR2HfKr2vCurQftXf2MQpALp7wBWXUzrw8VjZ1IK2liYNsHFUD7fir+tknEpishUDz0AHLbrSG7xRiymwwhu8lo7EjPvyRG4G40xKnL7oh7VYLStw2ISy7B+RveWK5qOu7zRpDbfAu/a7ggPacSg0NfV+gyK/hkAbQrR1J1N4xTWmGQ2PRNwd/rkg3V268hf+MF2KQAV4LB1Q2B3NVQKN0Iw1rDSGwzj8NOq3jst43DEYdEnHFNgebD17hwLwUn7yThT+s47LWIxXbTOGw1jMa6ay+wXCsIShpekN99G3LbTPngN9+C7FfI6p0WCIvJZ4Z/NCro7ulHRFwh1A85grvRaMI5V+2whKlDOHp6B7/K/c8KPlk/xUeU9n2c1w7j123fFPx9rjnY45KNrbbJkLsexsAnBWBfHhOdILB1gsHRCQJHJxiyOiGQuxwK+cshkKPn2sGQ1QwC91IguBdJAsA95w/Zgw8gq2I2AczXgKfPbN5vh9SsCgjG9JQHyMitwu+nXMH5BL7CNhOs32eLvKI6xvpnG/vPGj4pAAV/JS19cMhoxc3Epm/G7RN8Gv7tds7CRstEyF4L5SvABPhB4GiPiVYQOFpB4GoFgqMZCC4JgWfgB4B72hvc3+9AdqsJ39rJ1c9RFFVN8ehpMpMHoNijraMX7n6vsekPO3DJk3xyfiU1C5y94YPquvZZW/9Xwae+n3beiKnogmlKCxP1f1ifL6LcPqV2+Rm+zwM+QZ8vgE/Wv+NOOtaZxvEV4AvwCfwE+Beeg3vCA9w99uBuNQV3iwm4W4znRzYbQ/3wXTi6xSE4Og93nyRgj4YrFFXNJj0/dTMrd1rDwDYMBaX16Okb5K99nIEb+Cr4gjCStm15ktsGo1fNHzdn+Ebgk/XTEHCVUQw4AtfPuP3PLX8CfHL1x56Au8NmHHiCP3/C2WIMeRUzrN5jDUV1c3A2k2JNc/6tJli12wb/XH+K0JcF4HXSzOboF/dBmBN8xv0398Iimb83j2BnDsHmDAtRyUPTt5PN6s3W8gn+bqcsJgBU0ovg9/tTwSe3fykA3IvPwTn8EFx1K3C3mfLhk+UvApFTMcPyndZQP+oCA7sXKHnbyCSBpitwmRN8Cv5oZW9MWRt0Yvl78lz9Rix/zxj8XXczsc0mBbK6oUyQx6Zg75M+n0Pwx8BzVM3B2WYGzjZTkQujgBRoqppBTtUccmrmUFC3wMq9dvjzwmPkl9ZPOw8wJ/iC6L9vaASPMuuh9bIeujHvcDWGvy3LYrb8D/CdMrHzTibWmyWAeyUEn8Gn/v6iPziHHoCjZgmOigA+KYAoxJx/DSrmUNhuhZV77LD+zzvYfNAZWw+7YNsRV6gcvYedGm7QtQhCT+/AlJtkzhk+KQDN/LX1DsHiVR0uRNbi8tiePN8M/LuZUHdIxyrDGHAuB3+0fAJ/wZ9x9Zzt1qIBr2IO7hho5V022HLICX9d8sA5Az8Y2YfjrnsifEIyERpTgPD4IkQmFCMqsQSRiSVIz6vG4PDUCaB5gc8M/0bfI7+pB7ovq3EspBI6pARje/LMtW5/fPXufPX5Eyz/biZ2jrl/xevh/HE+uf5LAeAcfgSOutUHa2Msn6xfSMJVs4TSLlv8fu4xDG6Hwz88B1mFtWho7mRmCqfr0wWB+VTHeYNPw7++oVFEl7fjSEg5jgaVQyuiBgT+W4G/3SEdG8wSIH8lFBzNALCPuIG9wwZsVQuhCkfVAnLqVlj5uwMOaXvCzS8Nmfl84L39Q0w9AHnbuYAnhZg3+ALt4vUP42F2A9SflWL/s1JohldDK5z246mG5heWaNMq3fFr9QQrdoRl+TscM6Bmn4aVN6PAOeEO9nZroUInJaO4QmGXHdYdcIS9WwLKKlvQ20+FKF83eSPgMtlx3uGTRrb0DOL6yyqs9iiEqmchTgdXfBvw72Rgu2MG1t2MBGefI9jqVmCrWQpNqHtR3GWLk1e9mBQvFYBQqRdZ+AxyNpPxnfa1eYdP30ZToYVNPTgWUoaVj/Ox8Uk+Dvq9wdmQClwMrcKF0EpMtT5flJZPbn+TRSIUtIPAPvwQbHVrsNUWVgFk1CzBiIo51uyzxU3rIJSW8ws1qB0X8rEg8OmCafyfUs3DzmelUHyYhxUPsrHDsxAnA94y4Bcj/K1Wr6BI/f2F52Cf9YXMXkfIqFstnKhZQWKLCX79zQCKasawvReJppbOacfm86kMCwaftLZ3aATeeU3Y4lUI+XvZULqXjd8e5WCvVxE0nr/FuaAKCPbkEezMISrLV7VLxfJrL5hkDvuCP9jn/SBz3B0yO+0go249ryKlagnWZmP8Z40e/m/VVShsM8JDn0Q0NvPG8vILa/ECBVow+PQF1P83dg/CNKEaSg9yIX8vC3IumVByycSGhzn407sYpwPe4kzgxy1ZhA7/biZ2OKZjpV4kOJeegwHPwPcH+9wzyBxwgcx2m68XUpztfJFWswJrswl+XH0N3ytq43sFLchvMYB3YCo6u/qEZvFCgU/6SwqQ19CNY8FlWP4wl4Ev75wJeecMKDplYMP9bBzwLIIGbcfiL/xof8edDKyl5M7FceAJvkCOe/Ct/ysUQFrdBtLq1pBUscDP6w3x7+VXsEzuIv4lewE/KGpBdtNNeAe8ZrJwowsQzQsgT3VcUMsXfGn34Aj8C5uh7l0EBdcsyDlnQs45A3J30yF/Nx1KdzOw3jULu58U4CAtw35aihO+JG/4x7H1+bREe76SPDSxQ4mdDTStqxkI9sVxwAXg6XjmKWT+cIb0TjtI77CdXrbbQErdGlLUl6tY4JfNxvhprR6+V9bBMrlLDHSC/738JSirGOHOoxi0tHWJbFWRUOBT/0/pX4PYKqx4mAd5l4/w5e6kg4TrmAZ5hzSsvJOOLfeysdstH397FuGodwlO+PDluM/8wd/llIktVklQoLn88bA/fU59/9HHkN5tPxE8KQOjEHaQ3m4DSXLpW83x8wYj/LjmBr5Xvoxl8pfwv7IXGOhk7STfyV+E1G/XYeYYyqzSEYXFC4xSKPDJ/ZMCZNR2Yv+zYijfy/5g+QL4so5pkHVIg6x9KuTtU6Fsn4bVjunY5JQJ9Xs52PsoD3+SZ/AoBK3OPTy2QlewUFMwpctfsUOLNj5W735WzOGcBRXbFChfDZva3QuU4Lwf2Kd9ILPfCdI77CC1wxaS6jaQULXEr1vN8PNGI/xn7U38sPIaA/w7Bc0Prl0AXHD8Tu4iflmli6umz1BZ0zwW3AlQCP8oFPiCn0Xu3yOrAavdCkD9Prn9yeDL3k6FrN1ryNq+hpxtCuRtX0PZ7jVW307FBsd0qNBM3L0c7HuQxyzN+utxPgg6VfL8xZRu538CP4cp397nmg0q4uQHeBFTu3oCf35MzvmBfcYXkr874ZfNJvjPOn38uOo6/q18Bd8pamOZPMEml059Ob8/F8AefyR3/9NyHRw444Sq2hYMD89/xk7QzjM9ChU+BX/k/g/7FWH5/ZwZwZe1TYGsTQrkrEmSIWeVDFmLV5CzeAV581dQskzGCstkrLVOwcbbadh8OxUqDulQv5MJdccMqDumMzN2NGunZp8O1dupWHktHOyzfpA58wwy//jy5dRTSGv4QPqkN6RPeEH6uCekj3pC+ogHI7/stMcyJR38S+4SlhFkAj4B+vTwKbLffMASb8obmdz8XPPyMwU83fuECp8uZGBkFCFFLdjglgc5p4wvWr4Avqx1MmQJvOUrBj7XIglcsyRwTRP5YpIArnECZG/xRc4oHnJGcZAzjIW8QRzkDWIhp0dRfRCkjnpA6ogHJMeEnksdcYfU4TE55A7pT0Tid1d8v/L6FMAF4Ce3/B8UNaGsZoSwl7noHxgSWYD3qSIIHT4z9u8cgGZYGeRdsj9Y//g+f7zbnwq+7BTwubcSwDWKB9cwji8GseDqx4KrFwOZi8GQPOoJycPuE+QD9GngS/3lhp82muBfsuNd/HjogucTAzzqCuS26MP+QRTaOrqnLKz4FIww/hY6fEpX9w+NwD+/GWsf5EBhzPrnD378Z/A5BF4zBJLHvSdAFyjBTOBLH3yCn9XtZmX5FNn/suoKLul7oaKmmVleLQyoM/0OocOnC6Pov6ChG4f8SqDsksW4/gWDrx8LGe0wSB73gcRhj6+Hf8gdEvtcsUxBe1xwJ7D28cePlv+jkhZU/rZFcnqZ0LN3M1EAkcCnC2vuHoRFfDVWUcr3TjoWBL5BHNi6EZA8+ZQBP1f4Un89wvfLdWcE/zv5S+Bs0odfaDqTwZsJDGG/R2TwqegzqKAJau75kLubsSDwOdejIKXhC4kjHvMCn1z/D+sMvgifhnWsNVdxw8JPZKnbmSiSyOBTzX/uu04c9i9dEPhsAn/6GR/8fME/5I7/bDb7AvyL+LeiJg5dcEV1XSuz5m4mIETxHpHBH3n/Ho2dA7gYWgb5+bR8o3gw4M/4QeKo57zD/1nNZtqg70clbWzYZ47E1NIvLpoQBfDx3yky+IKo3+hlBZQo2zcuvTuXoR5bLxpSn4KfR8v/dYc9k9X7mNH7GOxRpo+GdS7uscwU7fiGXozPRQafGoPG/PZJFPRlzx2+cTw4N2MgedYfrPEWT+DnDf4TsHbfxTIFrc9cPwV4lL7VNvRBbX0bU3u3GIGPvyaRwqcLeZxRj99opo8i/rGJnVlbvkkCOAaxkDzHB88SAB9/PMwP+gRj+/HHGY3zmYzfE0jsdcYyxc+Hez8p62D7YXukZLwV+YTNeMDTPRc5/Ke5jdj0uPDr4Jvz07sc/ZeQPPccrKMeIPDChk/uXlnNGE+D05gdNaZr8MX0P5HD985pwAaa5fsqy08EWz8Gkuefg3XMSyjwWXucJiR6yN3/uuYqjOyCmA0VaEeNb+UhUvgU9N1Pq8PaB7N3+1zzpI/gT3iDdcxz4eEfdMevuxyxTJ7f59Ps3o/KOjih8wiVNS2LMos3nSKKDL6gvs8msRorXWcZ8BH4m9GQPO8P1klvsI57CQf+IXf8omb7Yaj3k/JlqP5Ne+LUYnBweM7Lp6YDtRD/Ex182thpYBh6UeVQdJrFUM/iFTgGMZA46weWhjdYJ7yECp+SPNTHfyevheVqtxAUmf1N9fPjlUhk8GmYV9PehzPBM0/y0Bw+Wy8SEmefgXXKR/jwDz7GD2v0QKVa0utvwOFBNHidX78J4ngQonguMvh0587XVR044Fs8fXqXds2wTgbXLBHS18Mhcc4PrNNP+fDJ5QvR8iX/uM+UX0v/dgPXzPyZaVqqTaQu7Ft8iAx+98AIPLIbsNkt94vwOWYJkNIN44P/56lo4B98Asru/bj8Ck7quKG8smlR5+1noowig1/T0Q/dyAp+sDfllG4K2CZxkLwcDInzfmCd8QVLVPD/esSUZu8/5YS84lqmMGMx1OHNBPJU7xE6fHKRtIgzuaoDKk/yoUh5/c/gU+VuCti3XkJSKxCs88/Aon5eRPBlDnuA88c9qB+7g9KKxrHIfqom/XZeFzp8ms1r7xuCVWINFF2ymRm9T+FzrV9B+mYkJDSfg3XBDyyyehHBlznkDs5hD+zX9kJKZvmin6mbjeoJFT5ZPQV6iRUd2O45Vrs/tmKHKnm4t1+DbZEAqRsvIKEVANZF/zH4orF8sngljaf4Wz8U0Slv0Ns38M0lcqZTBqHCp3173nUO4HTQGyjfm1i3T+BlTGIhcTUELO0AsMjqRQxf9rgPjphGIzG75psdyy8K+GT1tGDDKqkaa9zyoEDr9Zz45Vsc6yRI6UdCQjcYLJ0AsMjqRQhf5ogHFDR8cco6FmlFDeijWnvS3P+yh1Asn8bCtFPX46x6bPUqhiKt1B0DL2MWB8kboWBdCQbrciDf6rWeiwS+9BF3yBwl8E+h6ZiAygbeV9/I4FvQE6HA7xwYRmBRM3b6lkCRqnWdMsCxS4aUURQkroWApRsE1pUgkcPnHPfC6nN+sPDIQFN7L+hWKt/6cG46JVww+IIhXWvvEJ4XtWAf1ejfzwbX8TVkLOIhoR8O1vUQsK4Gixw+Y+2nfLBPPxwPQwvQ2NbDVBkt8H5I03ERyv8WDD51kQ1dA3DNbMAO32LIOmdCxiYRkrciwdIL5YO/Fixy+FJHPCGv4YNz9vGIzapB3wDNzgml7UX+JfMOnyZs6EYMKTU86MZUYhPV5Tu+hpTZS0gYRoB1M4wPn/p5EcKnFbjcEz7YcT0UToF5KK1pR/8SAk+aNy/wyVIIOtXi13cOwD2nEfufl0LRKQ3SlrGQMI4EyzAcLP0wkcOnJdfs415YcdYf/9jGIjG3Drzu/67x+0xdypzhk4ekZdftfcOIeNuGE8GlUHbNANsmHpKmUZAwiQDrVjhYhi9EDl/qqCcUTj+D+rUQuEcUo7mjl4nmaRi3RDz9BL2YNXzqyyk3T3fXpmDuTWsvAoubcSm8DKvvp0PWPgkS5jFgmUaBZRIJlnEEWEaig09LstknvLHinD926r2AhXcmCipax+6svRSRf+Q/K/jk3qk/L2/vQ1R5G2xTanDoeSGUnFMgbZ8ICcsYSFhEg2UWBZZppIjhe0LqmDfkTj3F/luRsPHNRmZpEwaGxvayXdrcGQ34DD4BJsseGB5ldtCkSZiK9j4k1/Dgk98Ik8RKnAotgapnNpRcUsB2TISkbSxYVjFgWcaAZS5a+FLHvcDR8MXqi/44aROHe6GFSC9pQmtnP3Or1P/mcftHm57Zswnwmf57eBQlzd0ILGqCU0YNrsWU4WhIEXY8y8da90xwnZMhcScRLPsEsOziwLJ5CZb1ywWGP/msnoSGNyQ1vCF10gfsU77gnPLFb5oB0HJ6haBX5Sh/x0Nv/7dXWDkzdHN/1wT4dDqy+qr2XgQVNUIv9g32+GZjzZMMKD/OhOyDNEg7JUHCIQGs2/F8+GT1woB/jubzn4H1jy8kTj9lhDZVkr8QgFWXAnDMKgZu4UUoqWlnbm5M978dGvnvztDNFf9n8AUKQG6/e3AYdbw+pFS3wT27FvoxpTj2PBfqnhnY6p6J3x6mY4VLMuQdE8G9HQe2TSxkrF9C2jIGUhbRkDSLgqRJJCRuRUCChnoGLyYO9SjDR2N93SBIXAmCxOVARiR1AiGlEwhprUDIaAUwd72Q0wrE8ishWHfjBbYZRmKfaRQu30+BW2QJssqa0d41wNzVmu5CKX7MrAUmhU8fpS6A+n+K7mlihoowyCvw+oZQ1daL5MpWBOS/g3NKBfQjinAxKA9Hn+bggGcWtj9MwybnZKx1TISSdSxkzaPBNo6EjFE4pAxeQPJmGCT1wiB5IwRS10MgfT0EMtdCwb0eAkW9MKwxisBGk2jssIzF3w5J0HB+hatP0nA7KB/+r8qRXtqE+rYekHVTfoEpoqRCSnEQNzPqY++aEv5UZ6EG5id0RpmgsGdwGK09A4yHKGnsRHZtBxLftiCyuBGhBfXwSa/Go+QK3Et8C+eEMjjGlsIushjW4UWwjSjC7chiOMWUwuXlGzyIfQPPpHIEplcjIqcOSUWNyKtqQ1k9D00dfejqG2KsmyZcmLG5GPZUmGb0+qzhz+is494kUJTBYVKWEWYnrp6BYfT0D4GOdF96Gn7RLcCojx4ZEVvwuOZb0KcLDp+unulCxroR8hyTytj7FvTXik8+oQWEAn/CN4r/WDQtIIa/aFAI/0LE8IXf5ovmG8XwFw0K4V+IGL7w23zRfOP/A8//r43Qil65AAAAAElFTkSuQmCC;" parent="1" vertex="1">
          <mxGeometry x="578" y="1960" width="26.74" height="24" as="geometry" />
        </mxCell>
        <mxCell id="JLn7KphtzS8eRCRagWTE-59" value="" style="edgeStyle=orthogonalEdgeStyle;fontSize=12;html=1;endArrow=blockThin;endFill=1;rounded=0;strokeWidth=2;endSize=4;startSize=4;strokeColor=#4284F3;entryX=0.5;entryY=1;entryDx=0;entryDy=0;" parent="1" target="JLn7KphtzS8eRCRagWTE-4" edge="1">
          <mxGeometry width="100" relative="1" as="geometry">
            <mxPoint x="540" y="1682" as="sourcePoint" />
            <mxPoint x="1495" y="1790" as="targetPoint" />
            <Array as="points">
              <mxPoint x="540" y="1667" />
              <mxPoint x="500" y="1667" />
              <mxPoint x="500" y="2100" />
              <mxPoint x="1523" y="2100" />
            </Array>
          </mxGeometry>
        </mxCell>
        <mxCell id="JLn7KphtzS8eRCRagWTE-60" value="" style="edgeStyle=orthogonalEdgeStyle;fontSize=12;html=1;endArrow=none;endFill=0;rounded=0;strokeWidth=2;endSize=4;startSize=4;dashed=0;strokeColor=#4284F3;exitX=1;exitY=0.5;exitDx=0;exitDy=0;" parent="1" edge="1">
          <mxGeometry width="100" relative="1" as="geometry">
            <mxPoint x="670" y="1909" as="sourcePoint" />
            <mxPoint x="910" y="1739" as="targetPoint" />
            <Array as="points">
              <mxPoint x="910" y="1909" />
            </Array>
          </mxGeometry>
        </mxCell>
        <mxCell id="JLn7KphtzS8eRCRagWTE-61" value="&lt;font style=&quot;font-size: 15px&quot;&gt;HTTP&lt;/font&gt;" style="text;html=1;strokeColor=none;fillColor=none;align=center;verticalAlign=middle;whiteSpace=wrap;rounded=0;shadow=1;fontColor=#808080;" parent="1" vertex="1">
          <mxGeometry x="727" y="1888" width="40" height="20" as="geometry" />
        </mxCell>
        <mxCell id="JLn7KphtzS8eRCRagWTE-62" value="" style="edgeStyle=orthogonalEdgeStyle;fontSize=12;html=1;endArrow=none;endFill=0;rounded=0;strokeWidth=2;endSize=4;startSize=4;dashed=0;strokeColor=#4284F3;exitX=1;exitY=0.5;exitDx=0;exitDy=0;" parent="1" source="JLn7KphtzS8eRCRagWTE-57" edge="1">
          <mxGeometry width="100" relative="1" as="geometry">
            <mxPoint x="1194.03" y="1674" as="sourcePoint" />
            <mxPoint x="820" y="1910" as="targetPoint" />
          </mxGeometry>
        </mxCell>
        <mxCell id="JLn7KphtzS8eRCRagWTE-63" value="&lt;font style=&quot;font-size: 15px&quot;&gt;Forward&lt;/font&gt;" style="text;html=1;strokeColor=none;fillColor=none;align=center;verticalAlign=middle;whiteSpace=wrap;rounded=0;shadow=1;fontColor=#808080;" parent="1" vertex="1">
          <mxGeometry x="730" y="1947.5" width="40" height="20" as="geometry" />
        </mxCell>
        <mxCell id="JLn7KphtzS8eRCRagWTE-64" value="&lt;font style=&quot;font-size: 15px&quot;&gt;mount&lt;/font&gt;" style="text;html=1;strokeColor=none;fillColor=none;align=center;verticalAlign=middle;whiteSpace=wrap;rounded=0;shadow=1;fontColor=#808080;" parent="1" vertex="1">
          <mxGeometry x="564.74" y="1567" width="40" height="20" as="geometry" />
        </mxCell>
        <mxCell id="JLn7KphtzS8eRCRagWTE-65" value="Syslog" style="strokeColor=#dddddd;shadow=1;strokeWidth=1;rounded=1;absoluteArcSize=1;arcSize=2;fontSize=15;" parent="1" vertex="1">
          <mxGeometry x="571.37" y="2010" width="100" height="40" as="geometry" />
        </mxCell>
        <mxCell id="JLn7KphtzS8eRCRagWTE-66" value="" style="edgeStyle=orthogonalEdgeStyle;fontSize=12;html=1;endArrow=none;endFill=0;rounded=0;strokeWidth=2;endSize=4;startSize=4;dashed=0;strokeColor=#4284F3;exitX=1;exitY=0.5;exitDx=0;exitDy=0;" parent="1" source="JLn7KphtzS8eRCRagWTE-65" edge="1">
          <mxGeometry width="100" relative="1" as="geometry">
            <mxPoint x="680" y="1981" as="sourcePoint" />
            <mxPoint x="820" y="1970" as="targetPoint" />
          </mxGeometry>
        </mxCell>
        <mxCell id="JLn7KphtzS8eRCRagWTE-67" value="&lt;font style=&quot;font-size: 15px&quot;&gt;Syslog&lt;/font&gt;" style="text;html=1;strokeColor=none;fillColor=none;align=center;verticalAlign=middle;whiteSpace=wrap;rounded=0;shadow=1;fontColor=#808080;" parent="1" vertex="1">
          <mxGeometry x="728" y="2008" width="40" height="20" as="geometry" />
        </mxCell>
        <mxCell id="JLn7KphtzS8eRCRagWTE-68" value="&lt;font color=&quot;#000000&quot; style=&quot;font-size: 18px&quot;&gt;FluentBit CRDs&lt;/font&gt;" style="rounded=1;absoluteArcSize=1;arcSize=2;html=1;strokeColor=none;gradientColor=none;shadow=0;dashed=0;fontSize=12;fontColor=#9E9E9E;align=center;verticalAlign=top;spacing=10;spacingTop=-4;fillColor=#99CCFF;" parent="1" vertex="1">
          <mxGeometry x="140" y="1596" width="327" height="404" as="geometry" />
        </mxCell>
        <mxCell id="JLn7KphtzS8eRCRagWTE-69" value="&lt;font color=&quot;#000000&quot; style=&quot;font-size: 15px&quot;&gt;FluentBit&lt;/font&gt;" style="strokeColor=#dddddd;fillColor=#ffffff;shadow=1;strokeWidth=1;rounded=1;absoluteArcSize=1;arcSize=2;fontSize=11;fontColor=#9E9E9E;align=center;html=1;" parent="1" vertex="1">
          <mxGeometry x="233.5" y="1640.5" width="140" height="40" as="geometry" />
        </mxCell>
        <mxCell id="JLn7KphtzS8eRCRagWTE-70" value="&lt;font color=&quot;#000000&quot;&gt;&lt;font style=&quot;font-size: 13px&quot;&gt;ClusterFluentBitConfig&lt;/font&gt;&lt;br&gt;&lt;/font&gt;" style="strokeColor=#dddddd;fillColor=#ffffff;shadow=1;strokeWidth=1;rounded=1;absoluteArcSize=1;arcSize=2;fontSize=11;fontColor=#9E9E9E;align=center;html=1;" parent="1" vertex="1">
          <mxGeometry x="150" y="1694" width="140" height="44.75" as="geometry" />
        </mxCell>
        <mxCell id="JLn7KphtzS8eRCRagWTE-71" value="&lt;font color=&quot;#000000&quot;&gt;&lt;font style=&quot;font-size: 15px&quot;&gt;ClusterInput&lt;/font&gt;&lt;br&gt;&lt;/font&gt;" style="strokeColor=#dddddd;fillColor=#ffffff;shadow=1;strokeWidth=1;rounded=1;absoluteArcSize=1;arcSize=2;fontSize=11;fontColor=#9E9E9E;align=center;html=1;" parent="1" vertex="1">
          <mxGeometry x="233.5" y="1755" width="140" height="40" as="geometry" />
        </mxCell>
        <mxCell id="JLn7KphtzS8eRCRagWTE-72" value="&lt;font color=&quot;#000000&quot;&gt;&lt;font style=&quot;font-size: 15px&quot;&gt;ClusterFilter&lt;/font&gt;&lt;br&gt;&lt;/font&gt;" style="strokeColor=#dddddd;fillColor=#ffffff;shadow=1;strokeWidth=1;rounded=1;absoluteArcSize=1;arcSize=2;fontSize=11;fontColor=#9E9E9E;align=center;html=1;" parent="1" vertex="1">
          <mxGeometry x="310" y="1805" width="140" height="40" as="geometry" />
        </mxCell>
        <mxCell id="JLn7KphtzS8eRCRagWTE-73" value="&lt;font color=&quot;#000000&quot;&gt;&lt;font style=&quot;font-size: 15px&quot;&gt;ClusterOutput&lt;/font&gt;&lt;br&gt;&lt;/font&gt;" style="strokeColor=#dddddd;fillColor=#ffffff;shadow=1;strokeWidth=1;rounded=1;absoluteArcSize=1;arcSize=2;fontSize=11;fontColor=#9E9E9E;align=center;html=1;" parent="1" vertex="1">
          <mxGeometry x="310" y="1865" width="140" height="40" as="geometry" />
        </mxCell>
        <mxCell id="JLn7KphtzS8eRCRagWTE-74" value="&lt;font color=&quot;#000000&quot;&gt;&lt;font style=&quot;font-size: 15px&quot;&gt;ClusterParser&lt;/font&gt;&lt;br&gt;&lt;/font&gt;" style="strokeColor=#dddddd;fillColor=#ffffff;shadow=1;strokeWidth=1;rounded=1;absoluteArcSize=1;arcSize=2;fontSize=11;fontColor=#9E9E9E;align=center;html=1;" parent="1" vertex="1">
          <mxGeometry x="310" y="1927.5" width="140" height="40" as="geometry" />
        </mxCell>
        <mxCell id="JLn7KphtzS8eRCRagWTE-75" value="&lt;font color=&quot;#000000&quot; style=&quot;font-size: 15px&quot;&gt;Filter&lt;/font&gt;" style="strokeColor=#dddddd;fillColor=#ffffff;shadow=1;strokeWidth=1;rounded=1;absoluteArcSize=1;arcSize=2;fontSize=11;fontColor=#9E9E9E;align=center;html=1;" parent="1" vertex="1">
          <mxGeometry x="893" y="2011" width="110" height="40" as="geometry" />
        </mxCell>
        <mxCell id="JLn7KphtzS8eRCRagWTE-76" value="&lt;font color=&quot;#000000&quot; style=&quot;font-size: 15px&quot;&gt;ClusterFilter&lt;/font&gt;" style="strokeColor=#dddddd;fillColor=#ffffff;shadow=1;strokeWidth=1;rounded=1;absoluteArcSize=1;arcSize=2;fontSize=11;fontColor=#9E9E9E;align=center;html=1;" parent="1" vertex="1">
          <mxGeometry x="1015" y="2011" width="110" height="40" as="geometry" />
        </mxCell>
        <mxCell id="JLn7KphtzS8eRCRagWTE-77" value="" style="edgeStyle=orthogonalEdgeStyle;fontSize=12;html=1;endArrow=blockThin;endFill=1;rounded=0;strokeWidth=2;endSize=4;startSize=4;strokeColor=#4284F3;entryX=0.5;entryY=1;entryDx=0;entryDy=0;" parent="1" target="JLn7KphtzS8eRCRagWTE-4" edge="1">
          <mxGeometry width="100" relative="1" as="geometry">
            <mxPoint x="540" y="1682" as="sourcePoint" />
            <mxPoint x="1522.5" y="2031" as="targetPoint" />
            <Array as="points">
              <mxPoint x="540" y="1667" />
              <mxPoint x="500" y="1667" />
              <mxPoint x="500" y="2100" />
              <mxPoint x="1523" y="2100" />
            </Array>
          </mxGeometry>
        </mxCell>
        <mxCell id="JLn7KphtzS8eRCRagWTE-78" value="" style="edgeStyle=orthogonalEdgeStyle;fontSize=12;html=1;endArrow=blockThin;endFill=1;rounded=0;strokeWidth=2;endSize=4;startSize=4;strokeColor=#4284F3;entryX=0.5;entryY=1;entryDx=0;entryDy=0;" parent="1" target="JLn7KphtzS8eRCRagWTE-4" edge="1">
          <mxGeometry width="100" relative="1" as="geometry">
            <mxPoint x="540" y="1682" as="sourcePoint" />
            <mxPoint x="1522.5" y="2031" as="targetPoint" />
            <Array as="points">
              <mxPoint x="540" y="1667" />
              <mxPoint x="500" y="1667" />
              <mxPoint x="500" y="2100" />
              <mxPoint x="1523" y="2100" />
            </Array>
          </mxGeometry>
        </mxCell>
        <mxCell id="JLn7KphtzS8eRCRagWTE-79" value="" style="edgeStyle=orthogonalEdgeStyle;fontSize=12;html=1;endArrow=blockThin;endFill=1;rounded=0;strokeWidth=2;endSize=4;startSize=4;strokeColor=#4284F3;entryX=0.5;entryY=1;entryDx=0;entryDy=0;" parent="1" target="JLn7KphtzS8eRCRagWTE-4" edge="1">
          <mxGeometry width="100" relative="1" as="geometry">
            <mxPoint x="540" y="1682" as="sourcePoint" />
            <mxPoint x="1522.5" y="2031" as="targetPoint" />
            <Array as="points">
              <mxPoint x="540" y="1667" />
              <mxPoint x="500" y="1667" />
              <mxPoint x="500" y="2100" />
              <mxPoint x="1523" y="2100" />
            </Array>
          </mxGeometry>
        </mxCell>
        <mxCell id="JLn7KphtzS8eRCRagWTE-80" value="&lt;span style=&quot;font-size: 15px&quot;&gt;Send&lt;/span&gt;" style="text;html=1;strokeColor=none;fillColor=none;align=center;verticalAlign=middle;whiteSpace=wrap;rounded=0;shadow=1;fontColor=#808080;" parent="1" vertex="1">
          <mxGeometry x="730" y="2079" width="40" height="20" as="geometry" />
        </mxCell>
        <mxCell id="9R1t7xdBmpi_dgT-Sg0A-5" value="&lt;font color=&quot;#000000&quot;&gt;&lt;font style=&quot;font-size: 15px&quot;&gt;Parser&lt;/font&gt;&lt;br&gt;&lt;/font&gt;" style="strokeColor=#dddddd;fillColor=#ffffff;shadow=1;strokeWidth=1;rounded=1;absoluteArcSize=1;arcSize=2;fontSize=11;fontColor=#9E9E9E;align=center;html=1;" vertex="1" parent="1">
          <mxGeometry x="150" y="1927.5" width="140" height="40" as="geometry" />
        </mxCell>
        <mxCell id="9R1t7xdBmpi_dgT-Sg0A-6" value="&lt;font color=&quot;#000000&quot;&gt;&lt;font style=&quot;font-size: 15px&quot;&gt;Output&lt;/font&gt;&lt;br&gt;&lt;/font&gt;" style="strokeColor=#dddddd;fillColor=#ffffff;shadow=1;strokeWidth=1;rounded=1;absoluteArcSize=1;arcSize=2;fontSize=11;fontColor=#9E9E9E;align=center;html=1;" vertex="1" parent="1">
          <mxGeometry x="150" y="1865" width="140" height="40" as="geometry" />
        </mxCell>
        <mxCell id="9R1t7xdBmpi_dgT-Sg0A-7" value="&lt;font color=&quot;#000000&quot;&gt;&lt;font style=&quot;font-size: 15px&quot;&gt;Filter&lt;/font&gt;&lt;br&gt;&lt;/font&gt;" style="strokeColor=#dddddd;fillColor=#ffffff;shadow=1;strokeWidth=1;rounded=1;absoluteArcSize=1;arcSize=2;fontSize=11;fontColor=#9E9E9E;align=center;html=1;" vertex="1" parent="1">
          <mxGeometry x="150" y="1805" width="140" height="40" as="geometry" />
        </mxCell>
        <mxCell id="9R1t7xdBmpi_dgT-Sg0A-8" value="&lt;font color=&quot;#000000&quot;&gt;&lt;font style=&quot;font-size: 15px&quot;&gt;FluentBitConfig&lt;/font&gt;&lt;br&gt;&lt;/font&gt;" style="strokeColor=#dddddd;fillColor=#ffffff;shadow=1;strokeWidth=1;rounded=1;absoluteArcSize=1;arcSize=2;fontSize=11;fontColor=#9E9E9E;align=center;html=1;" vertex="1" parent="1">
          <mxGeometry x="310" y="1698.75" width="140" height="40" as="geometry" />
        </mxCell>
      </root>
    </mxGraphModel>
  </diagram>
</mxfile>
